<?xml version="1.0" encoding="UTF-8" standalone="no"?>
<!DOCTYPE svg PUBLIC "-//W3C//DTD SVG 1.1//EN"
 "http://www.w3.org/Graphics/SVG/1.1/DTD/svg11.dtd">
<!-- Generated by graphviz version 2.43.0 (0)
 -->
<!-- Title: G Pages: 1 -->
<svg width="980pt" height="636pt"
 viewBox="0.00 0.00 980.00 636.00" xmlns="http://www.w3.org/2000/svg" xmlns:xlink="http://www.w3.org/1999/xlink">
<g id="graph0" class="graph" transform="scale(1 1) rotate(0) translate(4 632)">
<title>G</title>
<polygon fill="white" stroke="transparent" points="-4,4 -4,-632 976,-632 976,4 -4,4"/>
<g id="clust1" class="cluster">
<title>cluster_math</title>
<polygon fill="none" stroke="black" points="8,-8 8,-564 838,-564 838,-8 8,-8"/>
</g>
<!-- GoToSpace -->
<g id="node1" class="node">
<title>GoToSpace</title>
<ellipse fill="black" stroke="black" cx="896" cy="-610" rx="64.99" ry="18"/>
<text text-anchor="middle" x="896" y="-606.3" font-family="Times,serif" font-size="14.00" fill="white">Go to space</text>
</g>
<!-- Rocket -->
<g id="node2" class="node">
<title>Rocket</title>
<ellipse fill="#9e9e9e" stroke="#9e9e9e" cx="896" cy="-538" rx="42.49" ry="18"/>
<text text-anchor="middle" x="896" y="-534.3" font-family="Times,serif" font-size="14.00">Rocket</text>
</g>
<!-- Rocket&#45;&gt;GoToSpace -->
<g id="edge1" class="edge">
<title>Rocket&#45;&gt;GoToSpace</title>
<path fill="none" stroke="black" d="M896,-556.3C896,-564.02 896,-573.29 896,-581.89"/>
<polygon fill="black" stroke="black" points="892.5,-581.9 896,-591.9 899.5,-581.9 892.5,-581.9"/>
</g>
<!-- Algebra -->
<g id="node3" class="node">
<title>Algebra</title>
<ellipse fill="none" stroke="black" cx="745" cy="-178" rx="46.59" ry="18"/>
<text text-anchor="middle" x="745" y="-174.3" font-family="Times,serif" font-size="14.00">Algebra</text>
</g>
<!-- Algebra&#45;&gt;Rocket -->
<g id="edge33" class="edge">
<title>Algebra&#45;&gt;Rocket</title>
<path fill="none" stroke="black" stroke-dasharray="1,5" d="M782.79,-188.87C837.95,-205.82 934,-246.1 934,-321 934,-321 934,-321 934,-395 934,-436.37 918.77,-482.28 907.59,-510.39"/>
<polygon fill="black" stroke="black" points="904.24,-509.33 903.69,-519.91 910.72,-511.98 904.24,-509.33"/>
</g>
<!-- Analysis -->
<g id="node4" class="node">
<title>Analysis</title>
<ellipse fill="none" stroke="black" cx="447" cy="-250" rx="49.29" ry="18"/>
<text text-anchor="middle" x="447" y="-246.3" font-family="Times,serif" font-size="14.00">Analysis</text>
</g>
<!-- Algebra&#45;&gt;Analysis -->
<g id="edge2" class="edge">
<title>Algebra&#45;&gt;Analysis</title>
<path fill="none" stroke="black" d="M704.46,-187.08C656.58,-196.82 574.64,-214.13 505,-232 501.22,-232.97 497.31,-234.02 493.4,-235.1"/>
<polygon fill="black" stroke="black" points="492.39,-231.75 483.72,-237.83 494.29,-238.48 492.39,-231.75"/>
</g>
<!-- LinearAlgebra -->
<g id="node5" class="node">
<title>LinearAlgebra</title>
<ellipse fill="none" stroke="black" cx="731" cy="-250" rx="79.09" ry="18"/>
<text text-anchor="middle" x="731" y="-246.3" font-family="Times,serif" font-size="14.00">Linear Algebra</text>
</g>
<!-- Algebra&#45;&gt;LinearAlgebra -->
<g id="edge3" class="edge">
<title>Algebra&#45;&gt;LinearAlgebra</title>
<path fill="none" stroke="black" d="M741.54,-196.3C740,-204.02 738.14,-213.29 736.42,-221.89"/>
<polygon fill="black" stroke="black" points="732.95,-221.4 734.42,-231.9 739.81,-222.78 732.95,-221.4"/>
</g>
<!-- Topology -->
<g id="node6" class="node">
<title>Topology</title>
<ellipse fill="none" stroke="black" cx="778" cy="-466" rx="51.99" ry="18"/>
<text text-anchor="middle" x="778" y="-462.3" font-family="Times,serif" font-size="14.00">Topology</text>
</g>
<!-- Algebra&#45;&gt;Topology -->
<g id="edge4" class="edge">
<title>Algebra&#45;&gt;Topology</title>
<path fill="none" stroke="black" d="M775.07,-192.01C791.26,-200.76 809.76,-214.01 819,-232 855.56,-303.16 844.86,-336.3 819,-412 815.41,-422.51 808.79,-432.55 801.91,-441.02"/>
<polygon fill="black" stroke="black" points="799.23,-438.76 795.31,-448.61 804.51,-443.35 799.23,-438.76"/>
</g>
<!-- Calculus -->
<g id="node7" class="node">
<title>Calculus</title>
<ellipse fill="none" stroke="black" cx="476" cy="-322" rx="50.09" ry="18"/>
<text text-anchor="middle" x="476" y="-318.3" font-family="Times,serif" font-size="14.00">Calculus</text>
</g>
<!-- Analysis&#45;&gt;Calculus -->
<g id="edge5" class="edge">
<title>Analysis&#45;&gt;Calculus</title>
<path fill="none" stroke="black" d="M454.02,-267.95C457.28,-275.82 461.24,-285.38 464.9,-294.21"/>
<polygon fill="black" stroke="black" points="461.78,-295.83 468.84,-303.72 468.25,-293.15 461.78,-295.83"/>
</g>
<!-- DiscreteMathematics -->
<g id="node8" class="node">
<title>DiscreteMathematics</title>
<ellipse fill="none" stroke="black" cx="393" cy="-394" rx="113.18" ry="18"/>
<text text-anchor="middle" x="393" y="-390.3" font-family="Times,serif" font-size="14.00">Discrete Mathematics</text>
</g>
<!-- Analysis&#45;&gt;DiscreteMathematics -->
<g id="edge6" class="edge">
<title>Analysis&#45;&gt;DiscreteMathematics</title>
<path fill="none" stroke="black" d="M436.14,-267.64C429.87,-277.81 422.22,-291.28 417,-304 408.73,-324.17 402.46,-348.09 398.41,-366.04"/>
<polygon fill="black" stroke="black" points="394.98,-365.34 396.28,-375.85 401.82,-366.82 394.98,-365.34"/>
</g>
<!-- DifferentialEquations -->
<g id="node12" class="node">
<title>DifferentialEquations</title>
<ellipse fill="none" stroke="black" cx="697" cy="-394" rx="113.18" ry="18"/>
<text text-anchor="middle" x="697" y="-390.3" font-family="Times,serif" font-size="14.00">Differential Equations</text>
</g>
<!-- LinearAlgebra&#45;&gt;DifferentialEquations -->
<g id="edge24" class="edge">
<title>LinearAlgebra&#45;&gt;DifferentialEquations</title>
<path fill="none" stroke="black" d="M737.41,-268.26C743.2,-286.6 749.61,-316.16 741,-340 737.25,-350.4 730.46,-360.2 723.33,-368.48"/>
<polygon fill="black" stroke="black" points="720.68,-366.19 716.47,-375.92 725.83,-370.94 720.68,-366.19"/>
</g>
<!-- Calculus&#45;&gt;DiscreteMathematics -->
<g id="edge10" class="edge">
<title>Calculus&#45;&gt;DiscreteMathematics</title>
<path fill="none" stroke="black" d="M457.17,-338.88C446.44,-347.93 432.8,-359.43 420.86,-369.51"/>
<polygon fill="black" stroke="black" points="418.3,-367.08 412.92,-376.2 422.82,-372.43 418.3,-367.08"/>
</g>
<!-- Calculus&#45;&gt;DifferentialEquations -->
<g id="edge11" class="edge">
<title>Calculus&#45;&gt;DifferentialEquations</title>
<path fill="none" stroke="black" d="M512.49,-334.56C546.81,-345.43 598.75,-361.88 638.79,-374.56"/>
<polygon fill="black" stroke="black" points="637.85,-377.93 648.44,-377.62 639.96,-371.26 637.85,-377.93"/>
</g>
<!-- NumericalAnalysis -->
<g id="node13" class="node">
<title>NumericalAnalysis</title>
<ellipse fill="none" stroke="black" cx="607" cy="-466" rx="100.98" ry="18"/>
<text text-anchor="middle" x="607" y="-462.3" font-family="Times,serif" font-size="14.00">Numerical Analysis</text>
</g>
<!-- Calculus&#45;&gt;NumericalAnalysis -->
<g id="edge12" class="edge">
<title>Calculus&#45;&gt;NumericalAnalysis</title>
<path fill="none" stroke="black" d="M488.41,-339.62C496.13,-350.03 506.23,-363.73 515,-376 526.33,-391.85 526.66,-397.8 540,-412 550.3,-422.96 562.95,-433.55 574.47,-442.35"/>
<polygon fill="black" stroke="black" points="572.5,-445.25 582.61,-448.41 576.69,-439.63 572.5,-445.25"/>
</g>
<!-- DiscreteMathematics&#45;&gt;NumericalAnalysis -->
<g id="edge15" class="edge">
<title>DiscreteMathematics&#45;&gt;NumericalAnalysis</title>
<path fill="none" stroke="black" d="M440.23,-410.45C472.94,-421.15 516.63,-435.44 551.08,-446.71"/>
<polygon fill="black" stroke="black" points="550.4,-450.17 561,-449.95 552.58,-443.52 550.4,-450.17"/>
</g>
<!-- CombinatorialGameTheory -->
<g id="node14" class="node">
<title>CombinatorialGameTheory</title>
<ellipse fill="none" stroke="black" cx="158" cy="-466" rx="141.88" ry="18"/>
<text text-anchor="middle" x="158" y="-462.3" font-family="Times,serif" font-size="14.00">Combinatorial Game Theory</text>
</g>
<!-- DiscreteMathematics&#45;&gt;CombinatorialGameTheory -->
<g id="edge16" class="edge">
<title>DiscreteMathematics&#45;&gt;CombinatorialGameTheory</title>
<path fill="none" stroke="black" d="M342.3,-410.1C306.75,-420.69 258.99,-434.92 220.99,-446.24"/>
<polygon fill="black" stroke="black" points="219.64,-442.99 211.06,-449.2 221.64,-449.7 219.64,-442.99"/>
</g>
<!-- Cryptography -->
<g id="node15" class="node">
<title>Cryptography</title>
<ellipse fill="none" stroke="black" cx="393" cy="-466" rx="75.29" ry="18"/>
<text text-anchor="middle" x="393" y="-462.3" font-family="Times,serif" font-size="14.00">Cryptography</text>
</g>
<!-- DiscreteMathematics&#45;&gt;Cryptography -->
<g id="edge17" class="edge">
<title>DiscreteMathematics&#45;&gt;Cryptography</title>
<path fill="none" stroke="black" d="M393,-412.3C393,-420.02 393,-429.29 393,-437.89"/>
<polygon fill="black" stroke="black" points="389.5,-437.9 393,-447.9 396.5,-437.9 389.5,-437.9"/>
</g>
<!-- GraphTheory -->
<g id="node16" class="node">
<title>GraphTheory</title>
<ellipse fill="none" stroke="black" cx="547" cy="-538" rx="74.99" ry="18"/>
<text text-anchor="middle" x="547" y="-534.3" font-family="Times,serif" font-size="14.00">Graph Theory</text>
</g>
<!-- DiscreteMathematics&#45;&gt;GraphTheory -->
<g id="edge18" class="edge">
<title>DiscreteMathematics&#45;&gt;GraphTheory</title>
<path fill="none" stroke="black" d="M426.89,-411.25C443.44,-420.38 462.78,-432.97 477,-448 489.58,-461.3 486.19,-469.23 497,-484 504.4,-494.11 513.55,-504.32 521.99,-513.05"/>
<polygon fill="black" stroke="black" points="519.65,-515.66 529.17,-520.3 524.62,-510.73 519.65,-515.66"/>
</g>
<!-- Arithmetic -->
<g id="node9" class="node">
<title>Arithmetic</title>
<ellipse fill="none" stroke="black" cx="517" cy="-106" rx="59.59" ry="18"/>
<text text-anchor="middle" x="517" y="-102.3" font-family="Times,serif" font-size="14.00">Arithmetic</text>
</g>
<!-- Arithmetic&#45;&gt;Rocket -->
<g id="edge34" class="edge">
<title>Arithmetic&#45;&gt;Rocket</title>
<path fill="none" stroke="black" stroke-dasharray="1,5" d="M560.69,-118.29C569.06,-120.31 577.78,-122.3 586,-124 762.6,-160.49 972,-68.67 972,-249 972,-249 972,-249 972,-395 972,-441.12 940.45,-486.76 918.01,-513.39"/>
<polygon fill="black" stroke="black" points="915.29,-511.18 911.38,-521.02 920.58,-515.76 915.29,-511.18"/>
</g>
<!-- Arithmetic&#45;&gt;Algebra -->
<g id="edge7" class="edge">
<title>Arithmetic&#45;&gt;Algebra</title>
<path fill="none" stroke="black" d="M557.24,-119.35C597.24,-131.64 658.48,-150.44 700.06,-163.2"/>
<polygon fill="black" stroke="black" points="699.07,-166.56 709.65,-166.15 701.12,-159.87 699.07,-166.56"/>
</g>
<!-- Probability -->
<g id="node10" class="node">
<title>Probability</title>
<ellipse fill="none" stroke="black" cx="164" cy="-322" rx="61.99" ry="18"/>
<text text-anchor="middle" x="164" y="-318.3" font-family="Times,serif" font-size="14.00">Probability</text>
</g>
<!-- Arithmetic&#45;&gt;Probability -->
<g id="edge8" class="edge">
<title>Arithmetic&#45;&gt;Probability</title>
<path fill="none" stroke="black" d="M465.56,-115.32C427.05,-123.04 374.01,-136.9 332,-160 268.26,-195.05 211.07,-260.45 182.75,-296.16"/>
<polygon fill="black" stroke="black" points="179.91,-294.11 176.51,-304.15 185.42,-298.42 179.91,-294.11"/>
</g>
<!-- Statistics -->
<g id="node11" class="node">
<title>Statistics</title>
<ellipse fill="none" stroke="black" cx="396" cy="-178" rx="54.69" ry="18"/>
<text text-anchor="middle" x="396" y="-174.3" font-family="Times,serif" font-size="14.00">Statistics</text>
</g>
<!-- Arithmetic&#45;&gt;Statistics -->
<g id="edge9" class="edge">
<title>Arithmetic&#45;&gt;Statistics</title>
<path fill="none" stroke="black" d="M490.74,-122.19C473.1,-132.39 449.67,-145.95 430.52,-157.03"/>
<polygon fill="black" stroke="black" points="428.69,-154.04 421.79,-162.08 432.2,-160.1 428.69,-154.04"/>
</g>
<!-- Probability&#45;&gt;CombinatorialGameTheory -->
<g id="edge30" class="edge">
<title>Probability&#45;&gt;CombinatorialGameTheory</title>
<path fill="none" stroke="black" d="M163.28,-340.13C162.25,-364.33 160.38,-408.79 159.16,-437.61"/>
<polygon fill="black" stroke="black" points="155.65,-437.67 158.73,-447.81 162.65,-437.97 155.65,-437.67"/>
</g>
<!-- Statistics&#45;&gt;CombinatorialGameTheory -->
<g id="edge31" class="edge">
<title>Statistics&#45;&gt;CombinatorialGameTheory</title>
<path fill="none" stroke="black" d="M382.18,-195.61C342.18,-243.68 226.17,-383.08 178.66,-440.18"/>
<polygon fill="black" stroke="black" points="175.87,-438.06 172.16,-447.98 181.25,-442.53 175.87,-438.06"/>
</g>
<!-- DifferentialEquations&#45;&gt;Rocket -->
<g id="edge35" class="edge">
<title>DifferentialEquations&#45;&gt;Rocket</title>
<path fill="none" stroke="black" stroke-dasharray="1,5" d="M759.83,-408.98C786.29,-417.14 816.17,-429.57 839,-448 859.64,-464.66 875.15,-490.89 884.74,-510.57"/>
<polygon fill="black" stroke="black" points="881.69,-512.31 889.08,-519.9 888.03,-509.36 881.69,-512.31"/>
</g>
<!-- DifferentialEquations&#45;&gt;Topology -->
<g id="edge13" class="edge">
<title>DifferentialEquations&#45;&gt;Topology</title>
<path fill="none" stroke="black" d="M716.61,-411.95C727.18,-421.08 740.38,-432.49 751.82,-442.37"/>
<polygon fill="black" stroke="black" points="749.55,-445.04 759.41,-448.93 754.13,-439.75 749.55,-445.04"/>
</g>
<!-- DifferentialEquations&#45;&gt;NumericalAnalysis -->
<g id="edge14" class="edge">
<title>DifferentialEquations&#45;&gt;NumericalAnalysis</title>
<path fill="none" stroke="black" d="M675.21,-411.95C663.61,-420.97 649.16,-432.21 636.56,-442.01"/>
<polygon fill="black" stroke="black" points="634.33,-439.31 628.59,-448.21 638.63,-444.83 634.33,-439.31"/>
</g>
<!-- NumericalAnalysis&#45;&gt;Rocket -->
<g id="edge36" class="edge">
<title>NumericalAnalysis&#45;&gt;Rocket</title>
<path fill="none" stroke="black" stroke-dasharray="1,5" d="M671.19,-479.97C718.63,-489.92 784.66,-504.54 842,-520 845.84,-521.04 849.82,-522.17 853.79,-523.34"/>
<polygon fill="black" stroke="black" points="852.99,-526.76 863.58,-526.31 855.02,-520.06 852.99,-526.76"/>
</g>
<!-- NumericalAnalysis&#45;&gt;GraphTheory -->
<g id="edge27" class="edge">
<title>NumericalAnalysis&#45;&gt;GraphTheory</title>
<path fill="none" stroke="black" d="M592.48,-483.95C585.11,-492.54 576.02,-503.14 567.91,-512.6"/>
<polygon fill="black" stroke="black" points="565.24,-510.34 561.39,-520.21 570.56,-514.9 565.24,-510.34"/>
</g>
<!-- Geometry -->
<g id="node17" class="node">
<title>Geometry</title>
<ellipse fill="none" stroke="black" cx="571" cy="-250" rx="56.59" ry="18"/>
<text text-anchor="middle" x="571" y="-246.3" font-family="Times,serif" font-size="14.00">Geometry</text>
</g>
<!-- Geometry&#45;&gt;Rocket -->
<g id="edge37" class="edge">
<title>Geometry&#45;&gt;Rocket</title>
<path fill="none" stroke="black" stroke-dasharray="1,5" d="M613.76,-262.02C656.61,-273.47 719.25,-291.44 741,-304 814.89,-346.68 830.79,-371.2 868,-448 877.68,-467.98 885.02,-492.09 889.76,-510.17"/>
<polygon fill="black" stroke="black" points="886.41,-511.2 892.24,-520.04 893.19,-509.49 886.41,-511.2"/>
</g>
<!-- Geometry&#45;&gt;Topology -->
<g id="edge19" class="edge">
<title>Geometry&#45;&gt;Topology</title>
<path fill="none" stroke="black" d="M568.93,-268.16C564.85,-305.03 557.64,-390.26 575,-412 615.62,-462.88 654.08,-431.26 717,-448 721,-449.07 725.15,-450.19 729.31,-451.32"/>
<polygon fill="black" stroke="black" points="728.42,-454.7 738.99,-453.98 730.27,-447.96 728.42,-454.7"/>
</g>
<!-- Geometry&#45;&gt;Calculus -->
<g id="edge20" class="edge">
<title>Geometry&#45;&gt;Calculus</title>
<path fill="none" stroke="black" d="M549.44,-266.88C536.35,-276.53 519.48,-288.96 505.2,-299.48"/>
<polygon fill="black" stroke="black" points="503.12,-296.67 497.14,-305.42 507.27,-302.31 503.12,-296.67"/>
</g>
<!-- Geometry&#45;&gt;NumericalAnalysis -->
<g id="edge21" class="edge">
<title>Geometry&#45;&gt;NumericalAnalysis</title>
<path fill="none" stroke="black" d="M565.27,-268.14C556.16,-298.33 541.21,-362.49 560,-412 564.08,-422.74 571.43,-432.7 579.14,-441.02"/>
<polygon fill="black" stroke="black" points="576.7,-443.53 586.22,-448.17 581.67,-438.6 576.7,-443.53"/>
</g>
<!-- Trigonometry -->
<g id="node18" class="node">
<title>Trigonometry</title>
<ellipse fill="none" stroke="black" cx="658" cy="-322" rx="74.19" ry="18"/>
<text text-anchor="middle" x="658" y="-318.3" font-family="Times,serif" font-size="14.00">Trigonometry</text>
</g>
<!-- Geometry&#45;&gt;Trigonometry -->
<g id="edge22" class="edge">
<title>Geometry&#45;&gt;Trigonometry</title>
<path fill="none" stroke="black" d="M590.74,-266.88C602.17,-276.08 616.77,-287.82 629.43,-298.02"/>
<polygon fill="black" stroke="black" points="627.44,-300.91 637.43,-304.45 631.83,-295.45 627.44,-300.91"/>
</g>
<!-- Trigonometry&#45;&gt;DifferentialEquations -->
<g id="edge32" class="edge">
<title>Trigonometry&#45;&gt;DifferentialEquations</title>
<path fill="none" stroke="black" d="M667.44,-339.95C671.92,-347.99 677.39,-357.8 682.39,-366.77"/>
<polygon fill="black" stroke="black" points="679.45,-368.69 687.38,-375.72 685.57,-365.29 679.45,-368.69"/>
</g>
<!-- Infinity -->
<g id="node19" class="node">
<title>Infinity</title>
<ellipse fill="none" stroke="black" cx="517" cy="-34" rx="44.39" ry="18"/>
<text text-anchor="middle" x="517" y="-30.3" font-family="Times,serif" font-size="14.00">Infinity</text>
</g>
<!-- Infinity&#45;&gt;Arithmetic -->
<g id="edge23" class="edge">
<title>Infinity&#45;&gt;Arithmetic</title>
<path fill="none" stroke="black" d="M517,-52.3C517,-60.02 517,-69.29 517,-77.89"/>
<polygon fill="black" stroke="black" points="513.5,-77.9 517,-87.9 520.5,-77.9 513.5,-77.9"/>
</g>
<!-- NumberTheory -->
<g id="node20" class="node">
<title>NumberTheory</title>
<ellipse fill="none" stroke="black" cx="679" cy="-106" rx="83.69" ry="18"/>
<text text-anchor="middle" x="679" y="-102.3" font-family="Times,serif" font-size="14.00">Number Theory</text>
</g>
<!-- NumberTheory&#45;&gt;Algebra -->
<g id="edge25" class="edge">
<title>NumberTheory&#45;&gt;Algebra</title>
<path fill="none" stroke="black" d="M694.98,-123.95C703.29,-132.76 713.58,-143.67 722.66,-153.31"/>
<polygon fill="black" stroke="black" points="720.22,-155.82 729.62,-160.69 725.31,-151.02 720.22,-155.82"/>
</g>
<!-- NumberTheory&#45;&gt;LinearAlgebra -->
<g id="edge26" class="edge">
<title>NumberTheory&#45;&gt;LinearAlgebra</title>
<path fill="none" stroke="black" d="M678.18,-124.09C677.91,-142.53 679.28,-172.42 689,-196 693.2,-206.2 699.98,-216.05 706.88,-224.44"/>
<polygon fill="black" stroke="black" points="704.24,-226.74 713.44,-231.99 709.52,-222.15 704.24,-226.74"/>
</g>
<!-- OrderOfOperations -->
<g id="node21" class="node">
<title>OrderOfOperations</title>
<ellipse fill="none" stroke="black" cx="711" cy="-34" rx="103.98" ry="18"/>
<text text-anchor="middle" x="711" y="-30.3" font-family="Times,serif" font-size="14.00">Order of Operations</text>
</g>
<!-- OrderOfOperations&#45;&gt;Algebra -->
<g id="edge28" class="edge">
<title>OrderOfOperations&#45;&gt;Algebra</title>
<path fill="none" stroke="black" d="M739.08,-51.47C751.64,-60.5 765.13,-72.94 772,-88 781.41,-108.64 772.36,-133.44 762.27,-151.61"/>
<polygon fill="black" stroke="black" points="759.12,-150.07 757,-160.45 765.13,-153.65 759.12,-150.07"/>
</g>
<!-- OrderOfOperations&#45;&gt;Arithmetic -->
<g id="edge29" class="edge">
<title>OrderOfOperations&#45;&gt;Arithmetic</title>
<path fill="none" stroke="black" d="M667.95,-50.54C636.89,-61.74 595.01,-76.85 563.25,-88.31"/>
<polygon fill="black" stroke="black" points="561.95,-85.06 553.74,-91.74 564.33,-91.64 561.95,-85.06"/>
</g>
</g>
</svg>
