<?xml version="1.0" encoding="UTF-8" standalone="no"?>
<!DOCTYPE svg PUBLIC "-//W3C//DTD SVG 1.1//EN"
 "http://www.w3.org/Graphics/SVG/1.1/DTD/svg11.dtd">
<!-- Generated by graphviz version 2.43.0 (0)
 -->
<!-- Title: G Pages: 1 -->
<svg width="2303pt" height="699pt"
 viewBox="0.00 0.00 2302.64 698.85" xmlns="http://www.w3.org/2000/svg" xmlns:xlink="http://www.w3.org/1999/xlink">
<g id="graph0" class="graph" transform="scale(1 1) rotate(0) translate(4 694.85)">
<title>G</title>
<polygon fill="white" stroke="transparent" points="-4,4 -4,-694.85 2298.64,-694.85 2298.64,4 -4,4"/>
<g id="clust5" class="cluster">
<title>cluster_math</title>
<g id="a_clust5"><a xlink:href="https://simple.wikipedia.org/wiki/List_of_mathematics_topics" xlink:title="Math">
<polygon fill="none" stroke="black" points="8,-8 8,-614.38 418,-614.38 418,-8 8,-8"/>
<text text-anchor="middle" x="43" y="-18" font-family="Times,serif" font-size="20.00" fill="#91bdff">Math</text>
</a>
</g>
</g>
<g id="clust22" class="cluster">
<title>cluster_science</title>
<g id="a_clust22"><a xlink:href="https://en.wikipedia.org/wiki/Branches_of_science#Physical_science" xlink:title="Science">
<polygon fill="none" stroke="black" points="494,-306 494,-542 700,-542 700,-306 494,-306"/>
<text text-anchor="middle" x="542" y="-316" font-family="Times,serif" font-size="20.00" fill="#57ff57">Science</text>
</a>
</g>
</g>
<g id="clust29" class="cluster">
<title>cluster_engineering</title>
<g id="a_clust29"><a xlink:href="http://bulletin.iit.edu/undergraduate/courses/mmae/" xlink:title="Engineering">
<polygon fill="none" stroke="black" points="776,-388 776,-470 918,-470 918,-388 776,-388"/>
<text text-anchor="middle" x="847" y="-398" font-family="Times,serif" font-size="20.00" fill="#ff4dc4">Engineering</text>
</a>
</g>
</g>
<g id="clust31" class="cluster">
<title>cluster_programming</title>
<polygon fill="none" stroke="black" points="992,-8 992,-234 1206,-234 1206,-8 992,-8"/>
<text text-anchor="middle" x="1070" y="-18" font-family="Times,serif" font-size="20.00" fill="#cc0000">Programming</text>
</g>
<!-- TravelToSpace -->
<g id="node1" class="node">
<title>TravelToSpace</title>
<ellipse fill="black" stroke="black" cx="612" cy="-666.81" rx="145.83" ry="24.08"/>
<text text-anchor="middle" x="612" y="-660.61" font-family="Times,serif" font-size="24.00" fill="white">Travel to Space</text>
</g>
<!-- TellAStory -->
<g id="node2" class="node">
<title>TellAStory</title>
<ellipse fill="black" stroke="black" cx="885" cy="-666.81" rx="109.7" ry="24.08"/>
<text text-anchor="middle" x="885" y="-660.61" font-family="Times,serif" font-size="24.00" fill="white">Tell a Story</text>
</g>
<!-- EthicalHacking -->
<g id="node3" class="node">
<title>EthicalHacking</title>
<ellipse fill="black" stroke="black" cx="1162" cy="-666.81" rx="149.4" ry="24.08"/>
<text text-anchor="middle" x="1162" y="-660.61" font-family="Times,serif" font-size="24.00" fill="white">Ethical Hacking</text>
</g>
<!-- WhatHappened -->
<g id="node4" class="node">
<title>WhatHappened</title>
<ellipse fill="black" stroke="black" cx="1489" cy="-666.81" rx="159.61" ry="24.08"/>
<text text-anchor="middle" x="1489" y="-660.61" font-family="Times,serif" font-size="24.00" fill="white">What Happened?</text>
</g>
<!-- PredictTheFuture -->
<g id="node5" class="node">
<title>PredictTheFuture</title>
<ellipse fill="black" stroke="black" cx="1838" cy="-666.81" rx="171.24" ry="24.08"/>
<text text-anchor="middle" x="1838" y="-660.61" font-family="Times,serif" font-size="24.00" fill="white">Predict the Future</text>
</g>
<!-- SurvivalSkills -->
<g id="node6" class="node">
<title>SurvivalSkills</title>
<ellipse fill="black" stroke="black" cx="2161" cy="-666.81" rx="133.79" ry="24.08"/>
<text text-anchor="middle" x="2161" y="-660.61" font-family="Times,serif" font-size="24.00" fill="white">Survival Skills</text>
</g>
<!-- Rocket -->
<g id="node7" class="node">
<title>Rocket</title>
<ellipse fill="yellow" stroke="yellow" cx="612" cy="-588.38" rx="52.15" ry="18.27"/>
<text text-anchor="middle" x="612" y="-584.58" font-family="Times,serif" font-size="16.00">Rocket</text>
</g>
<!-- Rocket&#45;&gt;TravelToSpace -->
<g id="edge1" class="edge">
<title>Rocket&#45;&gt;TravelToSpace</title>
<path fill="none" stroke="black" d="M612,-607.11C612,-614.72 612,-623.86 612,-632.64"/>
<polygon fill="black" stroke="black" points="608.5,-632.67 612,-642.67 615.5,-632.67 608.5,-632.67"/>
</g>
<!-- Book -->
<g id="node8" class="node">
<title>Book</title>
<ellipse fill="yellow" stroke="yellow" cx="829" cy="-588.38" rx="41.02" ry="18.27"/>
<text text-anchor="middle" x="829" y="-584.58" font-family="Times,serif" font-size="16.00">Book</text>
</g>
<!-- Book&#45;&gt;TellAStory -->
<g id="edge2" class="edge">
<title>Book&#45;&gt;TellAStory</title>
<path fill="none" stroke="black" d="M841.15,-605.97C847.33,-614.41 855.05,-624.94 862.28,-634.81"/>
<polygon fill="black" stroke="black" points="859.47,-636.88 868.2,-642.88 865.11,-632.75 859.47,-636.88"/>
</g>
<!-- Speech -->
<g id="node9" class="node">
<title>Speech</title>
<ellipse fill="yellow" stroke="yellow" cx="942" cy="-588.38" rx="54.39" ry="18.27"/>
<text text-anchor="middle" x="942" y="-584.58" font-family="Times,serif" font-size="16.00">Speech</text>
</g>
<!-- Speech&#45;&gt;TellAStory -->
<g id="edge3" class="edge">
<title>Speech&#45;&gt;TellAStory</title>
<path fill="none" stroke="black" d="M929.35,-606.35C923.16,-614.65 915.51,-624.91 908.31,-634.55"/>
<polygon fill="black" stroke="black" points="905.33,-632.7 902.16,-642.81 910.94,-636.89 905.33,-632.7"/>
</g>
<!-- Website -->
<g id="node10" class="node">
<title>Website</title>
<ellipse fill="yellow" stroke="yellow" cx="1162" cy="-588.38" rx="57.97" ry="18.27"/>
<text text-anchor="middle" x="1162" y="-584.58" font-family="Times,serif" font-size="16.00">Website</text>
</g>
<!-- Website&#45;&gt;EthicalHacking -->
<g id="edge4" class="edge">
<title>Website&#45;&gt;EthicalHacking</title>
<path fill="none" stroke="black" d="M1162,-607.11C1162,-614.72 1162,-623.86 1162,-632.64"/>
<polygon fill="black" stroke="black" points="1158.5,-632.67 1162,-642.67 1165.5,-632.67 1158.5,-632.67"/>
</g>
<!-- Algebra -->
<g id="node11" class="node">
<title>Algebra</title>
<ellipse fill="none" stroke="black" cx="383" cy="-208" rx="27" ry="18"/>
<text text-anchor="middle" x="383" y="-206.7" font-family="Times,serif" font-size="6.00">Algebra</text>
</g>
<!-- Algebra&#45;&gt;Rocket -->
<g id="edge36" class="edge">
<title>Algebra&#45;&gt;Rocket</title>
<path fill="none" stroke="#91bdff" stroke-dasharray="5,2" d="M410.05,-210.51C521.07,-217.41 936,-250.6 936,-361 936,-361 936,-361 936,-445 936,-503.41 757.3,-553.59 665.32,-575.55"/>
<polygon fill="#91bdff" stroke="#91bdff" points="664.29,-572.2 655.36,-577.9 665.9,-579.02 664.29,-572.2"/>
</g>
<!-- Analysis -->
<g id="node12" class="node">
<title>Analysis</title>
<ellipse fill="none" stroke="black" cx="203" cy="-280" rx="27" ry="18"/>
<text text-anchor="middle" x="203" y="-278.7" font-family="Times,serif" font-size="6.00">Analysis</text>
</g>
<!-- Algebra&#45;&gt;Analysis -->
<g id="edge5" class="edge">
<title>Algebra&#45;&gt;Analysis</title>
<path fill="none" stroke="black" d="M359.31,-217C330.56,-226.87 280.77,-244.49 239,-262 237.18,-262.76 235.32,-263.56 233.46,-264.39"/>
<polygon fill="black" stroke="black" points="231.83,-261.29 224.18,-268.62 234.73,-267.65 231.83,-261.29"/>
</g>
<!-- LinearAlgebra -->
<g id="node13" class="node">
<title>LinearAlgebra</title>
<ellipse fill="none" stroke="black" cx="355" cy="-280" rx="35.4" ry="18"/>
<text text-anchor="middle" x="355" y="-278.7" font-family="Times,serif" font-size="6.00">Linear Algebra</text>
</g>
<!-- Algebra&#45;&gt;LinearAlgebra -->
<g id="edge6" class="edge">
<title>Algebra&#45;&gt;LinearAlgebra</title>
<path fill="none" stroke="black" d="M376.36,-225.59C373.13,-233.66 369.17,-243.57 365.54,-252.65"/>
<polygon fill="black" stroke="black" points="362.25,-251.46 361.78,-262.04 368.75,-254.06 362.25,-251.46"/>
</g>
<!-- Topology -->
<g id="node14" class="node">
<title>Topology</title>
<ellipse fill="none" stroke="black" cx="383" cy="-516" rx="27" ry="18"/>
<text text-anchor="middle" x="383" y="-514.7" font-family="Times,serif" font-size="6.00">Topology</text>
</g>
<!-- Algebra&#45;&gt;Topology -->
<g id="edge7" class="edge">
<title>Algebra&#45;&gt;Topology</title>
<path fill="none" stroke="black" d="M389.49,-225.9C393.08,-236.16 397.17,-249.64 399,-262 412.5,-353.45 414.71,-378.9 399,-470 397.93,-476.18 396.1,-482.63 394.05,-488.66"/>
<polygon fill="black" stroke="black" points="390.68,-487.68 390.49,-498.27 397.24,-490.11 390.68,-487.68"/>
</g>
<!-- Chemistry -->
<g id="node30" class="node">
<title>Chemistry</title>
<ellipse fill="none" stroke="black" cx="541" cy="-362" rx="27" ry="18"/>
<text text-anchor="middle" x="541" y="-360.7" font-family="Times,serif" font-size="6.00">Chemistry</text>
</g>
<!-- Algebra&#45;&gt;Chemistry -->
<g id="edge43" class="edge">
<title>Algebra&#45;&gt;Chemistry</title>
<path fill="none" stroke="#91bdff" stroke-dasharray="5,2" d="M397.86,-223.3C425.74,-250.12 486.01,-308.1 518.75,-339.59"/>
<polygon fill="#91bdff" stroke="#91bdff" points="516.43,-342.22 526.06,-346.63 521.28,-337.17 516.43,-342.22"/>
</g>
<!-- Calculus -->
<g id="node15" class="node">
<title>Calculus</title>
<ellipse fill="none" stroke="black" cx="241" cy="-362" rx="27" ry="18"/>
<text text-anchor="middle" x="241" y="-360.7" font-family="Times,serif" font-size="6.00">Calculus</text>
</g>
<!-- Analysis&#45;&gt;Calculus -->
<g id="edge8" class="edge">
<title>Analysis&#45;&gt;Calculus</title>
<path fill="none" stroke="black" d="M210.87,-297.58C216.05,-308.48 222.94,-322.98 228.82,-335.35"/>
<polygon fill="black" stroke="black" points="225.81,-337.19 233.27,-344.72 232.14,-334.18 225.81,-337.19"/>
</g>
<!-- DiscreteMathematics -->
<g id="node16" class="node">
<title>DiscreteMathematics</title>
<ellipse fill="none" stroke="black" cx="157" cy="-444" rx="46.4" ry="18"/>
<text text-anchor="middle" x="157" y="-442.7" font-family="Times,serif" font-size="6.00">Discrete Mathematics</text>
</g>
<!-- Analysis&#45;&gt;DiscreteMathematics -->
<g id="edge9" class="edge">
<title>Analysis&#45;&gt;DiscreteMathematics</title>
<path fill="none" stroke="black" d="M193.88,-297.15C192.46,-300.04 191.1,-303.07 190,-306 176.17,-342.98 166.66,-387.78 161.52,-415.84"/>
<polygon fill="black" stroke="black" points="158.07,-415.27 159.77,-425.73 164.96,-416.5 158.07,-415.27"/>
</g>
<!-- DifferentialEquations -->
<g id="node20" class="node">
<title>DifferentialEquations</title>
<ellipse fill="none" stroke="black" cx="308" cy="-444" rx="47.1" ry="18"/>
<text text-anchor="middle" x="308" y="-442.7" font-family="Times,serif" font-size="6.00">Differential Equations</text>
</g>
<!-- LinearAlgebra&#45;&gt;DifferentialEquations -->
<g id="edge27" class="edge">
<title>LinearAlgebra&#45;&gt;DifferentialEquations</title>
<path fill="none" stroke="black" d="M359.43,-298.04C363.85,-318.23 368.7,-352.6 359,-380 353.75,-394.84 343.35,-408.74 333.3,-419.68"/>
<polygon fill="black" stroke="black" points="330.56,-417.48 326.13,-427.1 335.6,-422.35 330.56,-417.48"/>
</g>
<!-- Calculus&#45;&gt;Rocket -->
<g id="edge37" class="edge">
<title>Calculus&#45;&gt;Rocket</title>
<path fill="none" stroke="#91bdff" stroke-dasharray="5,2" d="M261.47,-374.17C266.43,-376.45 271.8,-378.58 277,-380 314.46,-390.22 329.66,-369.87 364,-388 420.11,-417.62 415.03,-448.73 455,-498 470.74,-517.41 469.77,-527.33 490,-542 510.64,-556.97 536.78,-567.56 559.56,-574.72"/>
<polygon fill="#91bdff" stroke="#91bdff" points="558.84,-578.16 569.43,-577.68 560.85,-571.45 558.84,-578.16"/>
</g>
<!-- Calculus&#45;&gt;DiscreteMathematics -->
<g id="edge13" class="edge">
<title>Calculus&#45;&gt;DiscreteMathematics</title>
<path fill="none" stroke="black" d="M225.98,-377.3C213.56,-389.13 195.68,-406.17 181.23,-419.92"/>
<polygon fill="black" stroke="black" points="178.44,-417.75 173.61,-427.18 183.27,-422.81 178.44,-417.75"/>
</g>
<!-- Calculus&#45;&gt;DifferentialEquations -->
<g id="edge14" class="edge">
<title>Calculus&#45;&gt;DifferentialEquations</title>
<path fill="none" stroke="black" d="M253.6,-378.05C263.21,-389.52 276.63,-405.54 287.74,-418.81"/>
<polygon fill="black" stroke="black" points="285.2,-421.22 294.3,-426.64 290.56,-416.73 285.2,-421.22"/>
</g>
<!-- NumericalAnalysis -->
<g id="node21" class="node">
<title>NumericalAnalysis</title>
<ellipse fill="none" stroke="black" cx="295" cy="-516" rx="42.8" ry="18"/>
<text text-anchor="middle" x="295" y="-514.7" font-family="Times,serif" font-size="6.00">Numerical Analysis</text>
</g>
<!-- Calculus&#45;&gt;NumericalAnalysis -->
<g id="edge15" class="edge">
<title>Calculus&#45;&gt;NumericalAnalysis</title>
<path fill="none" stroke="black" d="M239.45,-380.2C238.19,-402.12 238.46,-440.67 252,-470 255.78,-478.18 261.65,-485.8 267.86,-492.37"/>
<polygon fill="black" stroke="black" points="265.61,-495.06 275.2,-499.56 270.51,-490.06 265.61,-495.06"/>
</g>
<!-- Thermodynamics -->
<g id="node31" class="node">
<title>Thermodynamics</title>
<ellipse fill="none" stroke="black" cx="541" cy="-444" rx="38.5" ry="18"/>
<text text-anchor="middle" x="541" y="-442.7" font-family="Times,serif" font-size="6.00">Thermodynamics</text>
</g>
<!-- Calculus&#45;&gt;Thermodynamics -->
<g id="edge46" class="edge">
<title>Calculus&#45;&gt;Thermodynamics</title>
<path fill="none" stroke="#91bdff" stroke-dasharray="5,2" d="M261.03,-374.2C266.1,-376.54 271.63,-378.69 277,-380 299.79,-385.57 466.59,-378.41 488,-388 502.51,-394.5 515.06,-406.97 524.29,-418.4"/>
<polygon fill="#91bdff" stroke="#91bdff" points="521.57,-420.6 530.41,-426.44 527.14,-416.36 521.57,-420.6"/>
</g>
<!-- DiscreteMathematics&#45;&gt;NumericalAnalysis -->
<g id="edge18" class="edge">
<title>DiscreteMathematics&#45;&gt;NumericalAnalysis</title>
<path fill="none" stroke="black" d="M183.94,-458.66C205.54,-469.62 236.04,-485.09 259.62,-497.05"/>
<polygon fill="black" stroke="black" points="258.1,-500.21 268.6,-501.61 261.27,-493.96 258.1,-500.21"/>
</g>
<!-- CombinatorialGameTheory -->
<g id="node22" class="node">
<title>CombinatorialGameTheory</title>
<ellipse fill="none" stroke="black" cx="74" cy="-516" rx="58.1" ry="18"/>
<text text-anchor="middle" x="74" y="-514.7" font-family="Times,serif" font-size="6.00">Combinatorial Game Theory</text>
</g>
<!-- DiscreteMathematics&#45;&gt;CombinatorialGameTheory -->
<g id="edge19" class="edge">
<title>DiscreteMathematics&#45;&gt;CombinatorialGameTheory</title>
<path fill="none" stroke="black" d="M138.58,-460.54C127.53,-469.85 113.28,-481.87 100.98,-492.24"/>
<polygon fill="black" stroke="black" points="98.62,-489.66 93.23,-498.78 103.13,-495.01 98.62,-489.66"/>
</g>
<!-- Cryptography -->
<g id="node23" class="node">
<title>Cryptography</title>
<ellipse fill="none" stroke="black" cx="202" cy="-516" rx="32.4" ry="18"/>
<text text-anchor="middle" x="202" y="-514.7" font-family="Times,serif" font-size="6.00">Cryptography</text>
</g>
<!-- DiscreteMathematics&#45;&gt;Cryptography -->
<g id="edge20" class="edge">
<title>DiscreteMathematics&#45;&gt;Cryptography</title>
<path fill="none" stroke="black" d="M167.66,-461.59C173.1,-470.05 179.83,-480.51 185.88,-489.92"/>
<polygon fill="black" stroke="black" points="183.06,-492.01 191.41,-498.53 188.95,-488.23 183.06,-492.01"/>
</g>
<!-- GraphTheory -->
<g id="node24" class="node">
<title>GraphTheory</title>
<ellipse fill="none" stroke="black" cx="223" cy="-588.38" rx="32.4" ry="18"/>
<text text-anchor="middle" x="223" y="-587.08" font-family="Times,serif" font-size="6.00">Graph Theory</text>
</g>
<!-- DiscreteMathematics&#45;&gt;GraphTheory -->
<g id="edge21" class="edge">
<title>DiscreteMathematics&#45;&gt;GraphTheory</title>
<path fill="none" stroke="black" d="M153.43,-462.29C150.14,-482.65 147.59,-516.87 161,-542 167.44,-554.07 178.67,-563.76 189.83,-571.03"/>
<polygon fill="black" stroke="black" points="188.29,-574.19 198.66,-576.34 191.89,-568.19 188.29,-574.19"/>
</g>
<!-- Arithmetic -->
<g id="node17" class="node">
<title>Arithmetic</title>
<ellipse fill="none" stroke="black" cx="255" cy="-136" rx="27.5" ry="18"/>
<text text-anchor="middle" x="255" y="-134.7" font-family="Times,serif" font-size="6.00">Arithmetic</text>
</g>
<!-- Arithmetic&#45;&gt;Rocket -->
<g id="edge38" class="edge">
<title>Arithmetic&#45;&gt;Rocket</title>
<path fill="none" stroke="#91bdff" stroke-dasharray="5,2" d="M276.16,-147.82C281.25,-150.11 286.74,-152.34 292,-154 438.92,-200.41 974,-124.92 974,-279 974,-279 974,-279 974,-445 974,-472.91 952.29,-499.14 856,-542 797.44,-568.06 724.56,-579.16 673.76,-583.89"/>
<polygon fill="#91bdff" stroke="#91bdff" points="673.25,-580.42 663.59,-584.77 673.85,-587.39 673.25,-580.42"/>
</g>
<!-- Arithmetic&#45;&gt;Algebra -->
<g id="edge10" class="edge">
<title>Arithmetic&#45;&gt;Algebra</title>
<path fill="none" stroke="black" d="M275.57,-148.25C296.65,-159.78 329.65,-177.82 353.51,-190.88"/>
<polygon fill="black" stroke="black" points="352.03,-194.05 362.49,-195.78 355.39,-187.91 352.03,-194.05"/>
</g>
<!-- Probability -->
<g id="node18" class="node">
<title>Probability</title>
<ellipse fill="none" stroke="black" cx="45" cy="-362" rx="28.1" ry="18"/>
<text text-anchor="middle" x="45" y="-360.7" font-family="Times,serif" font-size="6.00">Probability</text>
</g>
<!-- Arithmetic&#45;&gt;Probability -->
<g id="edge11" class="edge">
<title>Arithmetic&#45;&gt;Probability</title>
<path fill="none" stroke="black" d="M227.42,-136.17C186.21,-136.57 109.13,-143.91 69,-190 34.06,-230.13 36.03,-296.81 40.53,-333.93"/>
<polygon fill="black" stroke="black" points="37.08,-334.57 41.9,-344.01 44.02,-333.63 37.08,-334.57"/>
</g>
<!-- Statistics -->
<g id="node19" class="node">
<title>Statistics</title>
<ellipse fill="none" stroke="black" cx="105" cy="-208" rx="27" ry="18"/>
<text text-anchor="middle" x="105" y="-206.7" font-family="Times,serif" font-size="6.00">Statistics</text>
</g>
<!-- Arithmetic&#45;&gt;Statistics -->
<g id="edge12" class="edge">
<title>Arithmetic&#45;&gt;Statistics</title>
<path fill="none" stroke="black" d="M233.19,-147.18C207.64,-159.1 165.12,-178.94 136.11,-192.48"/>
<polygon fill="black" stroke="black" points="134.42,-189.41 126.84,-196.81 137.38,-195.75 134.42,-189.41"/>
</g>
<!-- Probability&#45;&gt;CombinatorialGameTheory -->
<g id="edge33" class="edge">
<title>Probability&#45;&gt;CombinatorialGameTheory</title>
<path fill="none" stroke="black" d="M48.27,-380.14C53.25,-406.25 62.79,-456.26 68.75,-487.49"/>
<polygon fill="black" stroke="black" points="65.39,-488.52 70.7,-497.69 72.26,-487.21 65.39,-488.52"/>
</g>
<!-- Statistics&#45;&gt;CombinatorialGameTheory -->
<g id="edge34" class="edge">
<title>Statistics&#45;&gt;CombinatorialGameTheory</title>
<path fill="none" stroke="black" d="M103.24,-226.33C98.1,-277.14 83.01,-426.03 76.76,-487.73"/>
<polygon fill="black" stroke="black" points="73.26,-487.56 75.74,-497.86 80.23,-488.27 73.26,-487.56"/>
</g>
<!-- DifferentialEquations&#45;&gt;Rocket -->
<g id="edge39" class="edge">
<title>DifferentialEquations&#45;&gt;Rocket</title>
<path fill="none" stroke="#91bdff" stroke-dasharray="5,2" d="M340.74,-457.07C363.77,-466.38 394.69,-480.6 419,-498 441.24,-513.91 438.62,-527.82 462,-542 490.61,-559.36 526.36,-570.51 555.77,-577.42"/>
<polygon fill="#91bdff" stroke="#91bdff" points="555.37,-580.92 565.89,-579.69 556.9,-574.09 555.37,-580.92"/>
</g>
<!-- DifferentialEquations&#45;&gt;Topology -->
<g id="edge16" class="edge">
<title>DifferentialEquations&#45;&gt;Topology</title>
<path fill="none" stroke="black" d="M325.02,-460.88C335.41,-470.59 348.84,-483.11 360.15,-493.67"/>
<polygon fill="black" stroke="black" points="357.88,-496.34 367.58,-500.61 362.66,-491.23 357.88,-496.34"/>
</g>
<!-- DifferentialEquations&#45;&gt;NumericalAnalysis -->
<g id="edge17" class="edge">
<title>DifferentialEquations&#45;&gt;NumericalAnalysis</title>
<path fill="none" stroke="black" d="M304.79,-462.3C303.35,-470.02 301.63,-479.29 300.04,-487.89"/>
<polygon fill="black" stroke="black" points="296.56,-487.42 298.18,-497.9 303.44,-488.7 296.56,-487.42"/>
</g>
<!-- NumericalAnalysis&#45;&gt;Rocket -->
<g id="edge40" class="edge">
<title>NumericalAnalysis&#45;&gt;Rocket</title>
<path fill="none" stroke="#91bdff" stroke-dasharray="5,2" d="M320.07,-530.79C328.44,-534.92 337.93,-539.11 347,-542 415.3,-563.8 497.04,-575.77 551.51,-581.87"/>
<polygon fill="#91bdff" stroke="#91bdff" points="551.37,-585.38 561.69,-582.98 552.12,-578.42 551.37,-585.38"/>
</g>
<!-- NumericalAnalysis&#45;&gt;GraphTheory -->
<g id="edge30" class="edge">
<title>NumericalAnalysis&#45;&gt;GraphTheory</title>
<path fill="none" stroke="black" d="M278.66,-532.97C268.91,-542.5 256.39,-554.74 245.69,-565.2"/>
<polygon fill="black" stroke="black" points="242.99,-562.95 238.29,-572.44 247.89,-567.95 242.99,-562.95"/>
</g>
<!-- Geometry -->
<g id="node25" class="node">
<title>Geometry</title>
<ellipse fill="none" stroke="black" cx="275" cy="-280" rx="27" ry="18"/>
<text text-anchor="middle" x="275" y="-278.7" font-family="Times,serif" font-size="6.00">Geometry</text>
</g>
<!-- Geometry&#45;&gt;Rocket -->
<g id="edge41" class="edge">
<title>Geometry&#45;&gt;Rocket</title>
<path fill="none" stroke="#91bdff" stroke-dasharray="5,2" d="M295.02,-292.26C300.08,-294.6 305.62,-296.74 311,-298 332.26,-302.99 686.96,-292.34 704,-306 785.82,-371.62 770.91,-461.22 704,-542 692.9,-555.4 676.87,-565.19 661.29,-572.16"/>
<polygon fill="#91bdff" stroke="#91bdff" points="659.58,-569.08 651.69,-576.15 662.27,-575.54 659.58,-569.08"/>
</g>
<!-- Geometry&#45;&gt;Topology -->
<g id="edge22" class="edge">
<title>Geometry&#45;&gt;Topology</title>
<path fill="none" stroke="black" d="M295.55,-291.89C300.5,-294.18 305.85,-296.39 311,-298 331.64,-304.46 344.1,-290.32 359,-306 405.95,-355.4 397.21,-443.84 389.01,-488.15"/>
<polygon fill="black" stroke="black" points="385.54,-487.67 387.03,-498.16 392.41,-489.03 385.54,-487.67"/>
</g>
<!-- Geometry&#45;&gt;Calculus -->
<g id="edge23" class="edge">
<title>Geometry&#45;&gt;Calculus</title>
<path fill="none" stroke="black" d="M267.96,-297.58C263.35,-308.41 257.24,-322.78 252,-335.11"/>
<polygon fill="black" stroke="black" points="248.73,-333.87 248.04,-344.45 255.17,-336.61 248.73,-333.87"/>
</g>
<!-- Geometry&#45;&gt;NumericalAnalysis -->
<g id="edge24" class="edge">
<title>Geometry&#45;&gt;NumericalAnalysis</title>
<path fill="none" stroke="black" d="M254.37,-291.65C249.42,-293.95 244.09,-296.22 239,-298 224.34,-303.12 214.64,-293.83 205,-306 184.58,-331.78 193.43,-349.21 205,-380 206.66,-384.42 209.75,-383.85 212,-388 230.02,-421.29 213.62,-438.77 235,-470 241.83,-479.97 251.59,-488.63 261.26,-495.61"/>
<polygon fill="black" stroke="black" points="259.42,-498.59 269.67,-501.31 263.35,-492.8 259.42,-498.59"/>
</g>
<!-- Trigonometry -->
<g id="node26" class="node">
<title>Trigonometry</title>
<ellipse fill="none" stroke="black" cx="318" cy="-362" rx="32.4" ry="18"/>
<text text-anchor="middle" x="318" y="-360.7" font-family="Times,serif" font-size="6.00">Trigonometry</text>
</g>
<!-- Geometry&#45;&gt;Trigonometry -->
<g id="edge25" class="edge">
<title>Geometry&#45;&gt;Trigonometry</title>
<path fill="none" stroke="black" d="M283.7,-297.19C289.61,-308.18 297.54,-322.93 304.29,-335.49"/>
<polygon fill="black" stroke="black" points="301.35,-337.41 309.16,-344.56 307.51,-334.09 301.35,-337.41"/>
</g>
<!-- Trigonometry&#45;&gt;DifferentialEquations -->
<g id="edge35" class="edge">
<title>Trigonometry&#45;&gt;DifferentialEquations</title>
<path fill="none" stroke="black" d="M315.88,-379.97C314.59,-390.29 312.91,-403.72 311.43,-415.53"/>
<polygon fill="black" stroke="black" points="307.92,-415.43 310.15,-425.78 314.87,-416.29 307.92,-415.43"/>
</g>
<!-- Infinity -->
<g id="node27" class="node">
<title>Infinity</title>
<ellipse fill="none" stroke="black" cx="255" cy="-64" rx="27" ry="18"/>
<text text-anchor="middle" x="255" y="-62.7" font-family="Times,serif" font-size="6.00">Infinity</text>
</g>
<!-- Infinity&#45;&gt;Arithmetic -->
<g id="edge26" class="edge">
<title>Infinity&#45;&gt;Arithmetic</title>
<path fill="none" stroke="black" d="M255,-82.3C255,-90.02 255,-99.29 255,-107.89"/>
<polygon fill="black" stroke="black" points="251.5,-107.9 255,-117.9 258.5,-107.9 251.5,-107.9"/>
</g>
<!-- NumberTheory -->
<g id="node28" class="node">
<title>NumberTheory</title>
<ellipse fill="none" stroke="black" cx="337" cy="-136" rx="36.1" ry="18"/>
<text text-anchor="middle" x="337" y="-134.7" font-family="Times,serif" font-size="6.00">Number Theory</text>
</g>
<!-- NumberTheory&#45;&gt;Algebra -->
<g id="edge28" class="edge">
<title>NumberTheory&#45;&gt;Algebra</title>
<path fill="none" stroke="black" d="M347.67,-153.24C353.44,-162.02 360.68,-173.04 367.1,-182.81"/>
<polygon fill="black" stroke="black" points="364.29,-184.9 372.71,-191.33 370.14,-181.06 364.29,-184.9"/>
</g>
<!-- NumberTheory&#45;&gt;LinearAlgebra -->
<g id="edge29" class="edge">
<title>NumberTheory&#45;&gt;LinearAlgebra</title>
<path fill="none" stroke="black" d="M338.39,-154.22C340.05,-173.65 343.1,-206.17 347,-234 347.81,-239.8 348.82,-245.99 349.85,-251.86"/>
<polygon fill="black" stroke="black" points="346.45,-252.73 351.67,-261.95 353.33,-251.49 346.45,-252.73"/>
</g>
<!-- OrderOfOperations -->
<g id="node29" class="node">
<title>OrderOfOperations</title>
<ellipse fill="none" stroke="black" cx="355" cy="-64" rx="44" ry="18"/>
<text text-anchor="middle" x="355" y="-62.7" font-family="Times,serif" font-size="6.00">Order of Operations</text>
</g>
<!-- OrderOfOperations&#45;&gt;Algebra -->
<g id="edge31" class="edge">
<title>OrderOfOperations&#45;&gt;Algebra</title>
<path fill="none" stroke="black" d="M366.13,-81.87C372.09,-91.91 378.84,-105.16 382,-118 387.01,-138.35 386.99,-162.12 385.87,-179.97"/>
<polygon fill="black" stroke="black" points="382.37,-179.74 385.08,-189.98 389.35,-180.28 382.37,-179.74"/>
</g>
<!-- OrderOfOperations&#45;&gt;Arithmetic -->
<g id="edge32" class="edge">
<title>OrderOfOperations&#45;&gt;Arithmetic</title>
<path fill="none" stroke="black" d="M333.79,-79.85C318.6,-90.48 298.04,-104.87 281.72,-116.29"/>
<polygon fill="black" stroke="black" points="279.35,-113.69 273.16,-122.29 283.36,-119.42 279.35,-113.69"/>
</g>
<!-- Chemistry&#45;&gt;Rocket -->
<g id="edge47" class="edge">
<title>Chemistry&#45;&gt;Rocket</title>
<path fill="none" stroke="#57ff57" stroke-dasharray="5,2" d="M564.09,-371.55C573.55,-374.72 584.67,-378.01 595,-380 606.6,-382.23 692.97,-379.34 701,-388 749.53,-440.33 678.53,-523.54 637.58,-563.9"/>
<polygon fill="#57ff57" stroke="#57ff57" points="635.07,-561.45 630.31,-570.92 639.94,-566.48 635.07,-561.45"/>
</g>
<!-- Chemistry&#45;&gt;Thermodynamics -->
<g id="edge42" class="edge">
<title>Chemistry&#45;&gt;Thermodynamics</title>
<path fill="none" stroke="black" d="M541,-380.36C541,-390.7 541,-404.06 541,-415.78"/>
<polygon fill="black" stroke="black" points="537.5,-415.95 541,-425.95 544.5,-415.95 537.5,-415.95"/>
</g>
<!-- Thermodynamics&#45;&gt;Rocket -->
<g id="edge48" class="edge">
<title>Thermodynamics&#45;&gt;Rocket</title>
<path fill="none" stroke="#57ff57" stroke-dasharray="5,2" d="M560.12,-459.71C571.38,-469.39 584.95,-483.01 593,-498 603.29,-517.16 608.01,-541.44 610.17,-559.85"/>
<polygon fill="#57ff57" stroke="#57ff57" points="606.7,-560.33 611.17,-569.93 613.66,-559.63 606.7,-560.33"/>
</g>
<!-- MaterialsScience -->
<g id="node34" class="node">
<title>MaterialsScience</title>
<ellipse fill="none" stroke="black" cx="544" cy="-516" rx="39.7" ry="18"/>
<text text-anchor="middle" x="544" y="-514.7" font-family="Times,serif" font-size="6.00">Materials Science</text>
</g>
<!-- Thermodynamics&#45;&gt;MaterialsScience -->
<g id="edge45" class="edge">
<title>Thermodynamics&#45;&gt;MaterialsScience</title>
<path fill="none" stroke="black" d="M541.74,-462.3C542.07,-470.02 542.47,-479.29 542.84,-487.89"/>
<polygon fill="black" stroke="black" points="539.34,-488.05 543.27,-497.9 546.34,-487.75 539.34,-488.05"/>
</g>
<!-- ClassicalMechanics -->
<g id="node32" class="node">
<title>ClassicalMechanics</title>
<ellipse fill="none" stroke="black" cx="647" cy="-362" rx="43.4" ry="18"/>
<text text-anchor="middle" x="647" y="-360.7" font-family="Times,serif" font-size="6.00">Classical Mechanics</text>
</g>
<!-- RelativisticMechanics -->
<g id="node33" class="node">
<title>RelativisticMechanics</title>
<ellipse fill="none" stroke="black" cx="645" cy="-444" rx="47.1" ry="18"/>
<text text-anchor="middle" x="645" y="-442.7" font-family="Times,serif" font-size="6.00">Relativistic Mechanics</text>
</g>
<!-- ClassicalMechanics&#45;&gt;RelativisticMechanics -->
<g id="edge44" class="edge">
<title>ClassicalMechanics&#45;&gt;RelativisticMechanics</title>
<path fill="none" stroke="black" d="M646.57,-380.36C646.31,-390.7 645.97,-404.06 645.68,-415.78"/>
<polygon fill="black" stroke="black" points="642.18,-415.87 645.43,-425.95 649.18,-416.04 642.18,-415.87"/>
</g>
<!-- Statics -->
<g id="node35" class="node">
<title>Statics</title>
<ellipse fill="none" stroke="black" cx="813" cy="-444" rx="27" ry="18"/>
<text text-anchor="middle" x="813" y="-442.7" font-family="Times,serif" font-size="6.00">Statics</text>
</g>
<!-- ClassicalMechanics&#45;&gt;Statics -->
<g id="edge50" class="edge">
<title>ClassicalMechanics&#45;&gt;Statics</title>
<path fill="none" stroke="#57ff57" stroke-dasharray="5,2" d="M684.81,-370.98C700.46,-375.02 718.53,-380.64 734,-388 753.55,-397.3 773.55,-411.28 788.53,-422.81"/>
<polygon fill="#57ff57" stroke="#57ff57" points="786.71,-425.83 796.74,-429.27 791.04,-420.33 786.71,-425.83"/>
</g>
<!-- MaterialsScience&#45;&gt;Rocket -->
<g id="edge49" class="edge">
<title>MaterialsScience&#45;&gt;Rocket</title>
<path fill="none" stroke="#57ff57" stroke-dasharray="5,2" d="M559.43,-532.97C568.05,-541.89 578.96,-553.19 588.61,-563.18"/>
<polygon fill="#57ff57" stroke="#57ff57" points="586.22,-565.74 595.68,-570.5 591.25,-560.87 586.22,-565.74"/>
</g>
<!-- Unix -->
<g id="node36" class="node">
<title>Unix</title>
<ellipse fill="none" stroke="black" cx="1171" cy="-64" rx="27" ry="18"/>
<text text-anchor="middle" x="1171" y="-62.7" font-family="Times,serif" font-size="6.00">Unix</text>
</g>
<!-- Python -->
<g id="node37" class="node">
<title>Python</title>
<ellipse fill="none" stroke="black" cx="1171" cy="-136" rx="27" ry="18"/>
<text text-anchor="middle" x="1171" y="-134.7" font-family="Times,serif" font-size="6.00">Python</text>
</g>
<!-- Unix&#45;&gt;Python -->
<g id="edge51" class="edge">
<title>Unix&#45;&gt;Python</title>
<path fill="none" stroke="black" d="M1171,-82.3C1171,-90.02 1171,-99.29 1171,-107.89"/>
<polygon fill="black" stroke="black" points="1167.5,-107.9 1171,-117.9 1174.5,-107.9 1167.5,-107.9"/>
</g>
<!-- HTML -->
<g id="node38" class="node">
<title>HTML</title>
<ellipse fill="none" stroke="black" cx="1099" cy="-64" rx="27" ry="18"/>
<text text-anchor="middle" x="1099" y="-62.7" font-family="Times,serif" font-size="6.00">HTML</text>
</g>
<!-- CSS -->
<g id="node39" class="node">
<title>CSS</title>
<ellipse fill="none" stroke="black" cx="1066" cy="-136" rx="27" ry="18"/>
<text text-anchor="middle" x="1066" y="-134.7" font-family="Times,serif" font-size="6.00">CSS</text>
</g>
<!-- HTML&#45;&gt;CSS -->
<g id="edge52" class="edge">
<title>HTML&#45;&gt;CSS</title>
<path fill="none" stroke="black" d="M1091.18,-81.59C1087.28,-89.87 1082.46,-100.08 1078.1,-109.34"/>
<polygon fill="black" stroke="black" points="1074.86,-107.99 1073.76,-118.53 1081.19,-110.98 1074.86,-107.99"/>
</g>
<!-- Elm -->
<g id="node40" class="node">
<title>Elm</title>
<ellipse fill="none" stroke="black" cx="1089" cy="-208" rx="27" ry="18"/>
<text text-anchor="middle" x="1089" y="-206.7" font-family="Times,serif" font-size="6.00">Elm</text>
</g>
<!-- HTML&#45;&gt;Elm -->
<g id="edge53" class="edge">
<title>HTML&#45;&gt;Elm</title>
<path fill="none" stroke="black" d="M1101.13,-82.13C1103.01,-100.1 1105,-129.14 1102,-154 1100.96,-162.6 1099.01,-171.81 1096.92,-180.11"/>
<polygon fill="black" stroke="black" points="1093.48,-179.44 1094.27,-190.01 1100.24,-181.25 1093.48,-179.44"/>
</g>
<!-- CSS&#45;&gt;Elm -->
<g id="edge54" class="edge">
<title>CSS&#45;&gt;Elm</title>
<path fill="none" stroke="black" d="M1071.57,-153.95C1074.2,-161.94 1077.39,-171.67 1080.33,-180.6"/>
<polygon fill="black" stroke="black" points="1077.04,-181.8 1083.48,-190.21 1083.69,-179.62 1077.04,-181.8"/>
</g>
<!-- SQL -->
<g id="node41" class="node">
<title>SQL</title>
<ellipse fill="none" stroke="black" cx="1027" cy="-64" rx="27" ry="18"/>
<text text-anchor="middle" x="1027" y="-62.7" font-family="Times,serif" font-size="6.00">SQL</text>
</g>
</g>
</svg>
