<?xml version="1.0" encoding="UTF-8" standalone="no"?>
<!DOCTYPE svg PUBLIC "-//W3C//DTD SVG 1.1//EN"
 "http://www.w3.org/Graphics/SVG/1.1/DTD/svg11.dtd">
<!-- Generated by graphviz version 2.43.0 (0)
 -->
<!-- Title: G Pages: 1 -->
<svg width="2570pt" height="736pt"
 viewBox="0.00 0.00 2570.16 735.62" xmlns="http://www.w3.org/2000/svg" xmlns:xlink="http://www.w3.org/1999/xlink">
<g id="graph0" class="graph" transform="scale(1 1) rotate(0) translate(4 731.62)">
<title>G</title>
<polygon fill="white" stroke="transparent" points="-4,4 -4,-731.62 2566.16,-731.62 2566.16,4 -4,4"/>
<g id="clust5" class="cluster">
<title>cluster_math</title>
<g id="a_clust5"><a xlink:href="https://simple.wikipedia.org/wiki/List_of_mathematics_topics" xlink:title="Math">
<polygon fill="none" stroke="black" points="8,-8 8,-614.38 418,-614.38 418,-8 8,-8"/>
<text text-anchor="middle" x="43" y="-18" font-family="Times,serif" font-size="20.00" fill="#91bdff">Math</text>
</a>
</g>
</g>
<g id="clust22" class="cluster">
<title>cluster_science</title>
<g id="a_clust22"><a xlink:href="https://en.wikipedia.org/wiki/Branches_of_science#Physical_science" xlink:title="Science">
<polygon fill="none" stroke="black" points="494,-306 494,-542 700,-542 700,-306 494,-306"/>
<text text-anchor="middle" x="542" y="-316" font-family="Times,serif" font-size="20.00" fill="#57ff57">Science</text>
</a>
</g>
</g>
<g id="clust29" class="cluster">
<title>cluster_engineering</title>
<g id="a_clust29"><a xlink:href="http://bulletin.iit.edu/undergraduate/courses/mmae/" xlink:title="Engineering">
<polygon fill="none" stroke="black" points="776,-388 776,-470 918,-470 918,-388 776,-388"/>
<text text-anchor="middle" x="847" y="-398" font-family="Times,serif" font-size="20.00" fill="#ff4dc4">Engineering</text>
</a>
</g>
</g>
<!-- TravelToSpace -->
<g id="node1" class="node">
<title>TravelToSpace</title>
<ellipse fill="black" stroke="black" cx="612" cy="-685.2" rx="145.83" ry="24.08"/>
<text text-anchor="middle" x="612" y="-679" font-family="Times,serif" font-size="24.00" fill="white">Travel to Space</text>
</g>
<!-- TellAStory -->
<g id="node2" class="node">
<title>TellAStory</title>
<ellipse fill="black" stroke="black" cx="885" cy="-685.2" rx="109.7" ry="24.08"/>
<text text-anchor="middle" x="885" y="-679" font-family="Times,serif" font-size="24.00" fill="white">Tell a Story</text>
</g>
<!-- EthicalHacker -->
<g id="node3" class="node">
<title>EthicalHacker</title>
<ellipse fill="black" stroke="black" cx="1153" cy="-685.2" rx="140.01" ry="24.08"/>
<text text-anchor="middle" x="1153" y="-679" font-family="Times,serif" font-size="24.00" fill="white">Ethical Hacker</text>
</g>
<!-- WhatHappenedBeforeIWasBorn -->
<g id="node4" class="node">
<title>WhatHappenedBeforeIWasBorn</title>
<ellipse fill="black" stroke="black" cx="1525" cy="-685.2" rx="213.59" ry="42.35"/>
<text text-anchor="middle" x="1525" y="-692" font-family="Times,serif" font-size="24.00" fill="white">What Happened Before</text>
<text text-anchor="middle" x="1525" y="-666" font-family="Times,serif" font-size="24.00" fill="white">I Was Born?</text>
</g>
<!-- PredictingTheFuture -->
<g id="node5" class="node">
<title>PredictingTheFuture</title>
<ellipse fill="black" stroke="black" cx="1955" cy="-685.2" rx="198.89" ry="24.08"/>
<text text-anchor="middle" x="1955" y="-679" font-family="Times,serif" font-size="24.00" fill="white">Predicting the Future</text>
</g>
<!-- UrbanSkillsTraining -->
<g id="node6" class="node">
<title>UrbanSkillsTraining</title>
<ellipse fill="black" stroke="black" cx="2367" cy="-685.2" rx="195.32" ry="24.08"/>
<text text-anchor="middle" x="2367" y="-679" font-family="Times,serif" font-size="24.00" fill="white">Urban Skills Training</text>
</g>
<!-- Rocket -->
<g id="node7" class="node">
<title>Rocket</title>
<ellipse fill="yellow" stroke="yellow" cx="612" cy="-588.38" rx="52.15" ry="18.27"/>
<text text-anchor="middle" x="612" y="-584.58" font-family="Times,serif" font-size="16.00">Rocket</text>
</g>
<!-- Rocket&#45;&gt;TravelToSpace -->
<g id="edge1" class="edge">
<title>Rocket&#45;&gt;TravelToSpace</title>
<path fill="none" stroke="black" d="M612,-606.77C612,-618.99 612,-635.73 612,-650.51"/>
<polygon fill="black" stroke="black" points="608.5,-650.84 612,-660.84 615.5,-650.84 608.5,-650.84"/>
</g>
<!-- Book -->
<g id="node8" class="node">
<title>Book</title>
<ellipse fill="yellow" stroke="yellow" cx="828" cy="-588.38" rx="41.02" ry="18.27"/>
<text text-anchor="middle" x="828" y="-584.58" font-family="Times,serif" font-size="16.00">Book</text>
</g>
<!-- Book&#45;&gt;TellAStory -->
<g id="edge2" class="edge">
<title>Book&#45;&gt;TellAStory</title>
<path fill="none" stroke="black" d="M838.19,-606.34C845.9,-619.16 856.71,-637.14 866,-652.59"/>
<polygon fill="black" stroke="black" points="863.1,-654.57 871.26,-661.34 869.1,-650.96 863.1,-654.57"/>
</g>
<!-- Speech -->
<g id="node9" class="node">
<title>Speech</title>
<ellipse fill="yellow" stroke="yellow" cx="941" cy="-588.38" rx="54.39" ry="18.27"/>
<text text-anchor="middle" x="941" y="-584.58" font-family="Times,serif" font-size="16.00">Speech</text>
</g>
<!-- Speech&#45;&gt;TellAStory -->
<g id="edge3" class="edge">
<title>Speech&#45;&gt;TellAStory</title>
<path fill="none" stroke="black" d="M930.73,-606.77C923.18,-619.56 912.71,-637.28 903.69,-652.55"/>
<polygon fill="black" stroke="black" points="900.66,-650.81 898.59,-661.2 906.68,-654.37 900.66,-650.81"/>
</g>
<!-- Website -->
<g id="node10" class="node">
<title>Website</title>
<ellipse fill="yellow" stroke="yellow" cx="1153" cy="-588.38" rx="57.97" ry="18.27"/>
<text text-anchor="middle" x="1153" y="-584.58" font-family="Times,serif" font-size="16.00">Website</text>
</g>
<!-- Website&#45;&gt;EthicalHacker -->
<g id="edge4" class="edge">
<title>Website&#45;&gt;EthicalHacker</title>
<path fill="none" stroke="black" d="M1153,-606.77C1153,-618.99 1153,-635.73 1153,-650.51"/>
<polygon fill="black" stroke="black" points="1149.5,-650.84 1153,-660.84 1156.5,-650.84 1149.5,-650.84"/>
</g>
<!-- Algebra -->
<g id="node11" class="node">
<title>Algebra</title>
<ellipse fill="none" stroke="black" cx="383" cy="-208" rx="27" ry="18"/>
<text text-anchor="middle" x="383" y="-206.7" font-family="Times,serif" font-size="6.00">Algebra</text>
</g>
<!-- Algebra&#45;&gt;Rocket -->
<g id="edge36" class="edge">
<title>Algebra&#45;&gt;Rocket</title>
<path fill="none" stroke="#91bdff" stroke-dasharray="5,2" d="M410.05,-210.51C521.07,-217.41 936,-250.6 936,-361 936,-361 936,-361 936,-445 936,-503.41 757.3,-553.59 665.32,-575.55"/>
<polygon fill="#91bdff" stroke="#91bdff" points="664.29,-572.2 655.36,-577.9 665.9,-579.02 664.29,-572.2"/>
</g>
<!-- Analysis -->
<g id="node12" class="node">
<title>Analysis</title>
<ellipse fill="none" stroke="black" cx="203" cy="-280" rx="27" ry="18"/>
<text text-anchor="middle" x="203" y="-278.7" font-family="Times,serif" font-size="6.00">Analysis</text>
</g>
<!-- Algebra&#45;&gt;Analysis -->
<g id="edge5" class="edge">
<title>Algebra&#45;&gt;Analysis</title>
<path fill="none" stroke="black" d="M359.31,-217C330.56,-226.87 280.77,-244.49 239,-262 237.18,-262.76 235.32,-263.56 233.46,-264.39"/>
<polygon fill="black" stroke="black" points="231.83,-261.29 224.18,-268.62 234.73,-267.65 231.83,-261.29"/>
</g>
<!-- LinearAlgebra -->
<g id="node13" class="node">
<title>LinearAlgebra</title>
<ellipse fill="none" stroke="black" cx="355" cy="-280" rx="35.4" ry="18"/>
<text text-anchor="middle" x="355" y="-278.7" font-family="Times,serif" font-size="6.00">Linear Algebra</text>
</g>
<!-- Algebra&#45;&gt;LinearAlgebra -->
<g id="edge6" class="edge">
<title>Algebra&#45;&gt;LinearAlgebra</title>
<path fill="none" stroke="black" d="M376.36,-225.59C373.13,-233.66 369.17,-243.57 365.54,-252.65"/>
<polygon fill="black" stroke="black" points="362.25,-251.46 361.78,-262.04 368.75,-254.06 362.25,-251.46"/>
</g>
<!-- Topology -->
<g id="node14" class="node">
<title>Topology</title>
<ellipse fill="none" stroke="black" cx="383" cy="-516" rx="27" ry="18"/>
<text text-anchor="middle" x="383" y="-514.7" font-family="Times,serif" font-size="6.00">Topology</text>
</g>
<!-- Algebra&#45;&gt;Topology -->
<g id="edge7" class="edge">
<title>Algebra&#45;&gt;Topology</title>
<path fill="none" stroke="black" d="M389.49,-225.9C393.08,-236.16 397.17,-249.64 399,-262 412.5,-353.45 414.71,-378.9 399,-470 397.93,-476.18 396.1,-482.63 394.05,-488.66"/>
<polygon fill="black" stroke="black" points="390.68,-487.68 390.49,-498.27 397.24,-490.11 390.68,-487.68"/>
</g>
<!-- Chemistry -->
<g id="node30" class="node">
<title>Chemistry</title>
<ellipse fill="none" stroke="black" cx="541" cy="-362" rx="27" ry="18"/>
<text text-anchor="middle" x="541" y="-360.7" font-family="Times,serif" font-size="6.00">Chemistry</text>
</g>
<!-- Algebra&#45;&gt;Chemistry -->
<g id="edge43" class="edge">
<title>Algebra&#45;&gt;Chemistry</title>
<path fill="none" stroke="#91bdff" stroke-dasharray="5,2" d="M397.86,-223.3C425.74,-250.12 486.01,-308.1 518.75,-339.59"/>
<polygon fill="#91bdff" stroke="#91bdff" points="516.43,-342.22 526.06,-346.63 521.28,-337.17 516.43,-342.22"/>
</g>
<!-- Calculus -->
<g id="node15" class="node">
<title>Calculus</title>
<ellipse fill="none" stroke="black" cx="241" cy="-362" rx="27" ry="18"/>
<text text-anchor="middle" x="241" y="-360.7" font-family="Times,serif" font-size="6.00">Calculus</text>
</g>
<!-- Analysis&#45;&gt;Calculus -->
<g id="edge8" class="edge">
<title>Analysis&#45;&gt;Calculus</title>
<path fill="none" stroke="black" d="M210.87,-297.58C216.05,-308.48 222.94,-322.98 228.82,-335.35"/>
<polygon fill="black" stroke="black" points="225.81,-337.19 233.27,-344.72 232.14,-334.18 225.81,-337.19"/>
</g>
<!-- DiscreteMathematics -->
<g id="node16" class="node">
<title>DiscreteMathematics</title>
<ellipse fill="none" stroke="black" cx="161" cy="-444" rx="46.4" ry="18"/>
<text text-anchor="middle" x="161" y="-442.7" font-family="Times,serif" font-size="6.00">Discrete Mathematics</text>
</g>
<!-- Analysis&#45;&gt;DiscreteMathematics -->
<g id="edge9" class="edge">
<title>Analysis&#45;&gt;DiscreteMathematics</title>
<path fill="none" stroke="black" d="M193.81,-297.12C192.4,-300.02 191.06,-303.05 190,-306 176.82,-342.77 168.76,-387.35 164.59,-415.45"/>
<polygon fill="black" stroke="black" points="161.07,-415.32 163.13,-425.72 168,-416.31 161.07,-415.32"/>
</g>
<!-- DifferentialEquations -->
<g id="node20" class="node">
<title>DifferentialEquations</title>
<ellipse fill="none" stroke="black" cx="312" cy="-444" rx="47.1" ry="18"/>
<text text-anchor="middle" x="312" y="-442.7" font-family="Times,serif" font-size="6.00">Differential Equations</text>
</g>
<!-- LinearAlgebra&#45;&gt;DifferentialEquations -->
<g id="edge27" class="edge">
<title>LinearAlgebra&#45;&gt;DifferentialEquations</title>
<path fill="none" stroke="black" d="M359.24,-297.97C363.48,-318.1 368.16,-352.41 359,-380 354.16,-394.59 344.47,-408.54 335.15,-419.59"/>
<polygon fill="black" stroke="black" points="332.52,-417.28 328.5,-427.09 337.75,-421.93 332.52,-417.28"/>
</g>
<!-- Calculus&#45;&gt;Rocket -->
<g id="edge37" class="edge">
<title>Calculus&#45;&gt;Rocket</title>
<path fill="none" stroke="#91bdff" stroke-dasharray="5,2" d="M261.46,-374.18C266.42,-376.46 271.8,-378.59 277,-380 296.59,-385.31 350.13,-378.37 368,-388 370.4,-389.29 487.79,-540.4 490,-542 510.62,-556.99 536.76,-567.58 559.55,-574.74"/>
<polygon fill="#91bdff" stroke="#91bdff" points="558.83,-578.18 569.41,-577.69 560.84,-571.47 558.83,-578.18"/>
</g>
<!-- Calculus&#45;&gt;DiscreteMathematics -->
<g id="edge13" class="edge">
<title>Calculus&#45;&gt;DiscreteMathematics</title>
<path fill="none" stroke="black" d="M226.7,-377.3C214.94,-389.06 198.05,-405.95 184.34,-419.66"/>
<polygon fill="black" stroke="black" points="181.7,-417.35 177.1,-426.9 186.65,-422.3 181.7,-417.35"/>
</g>
<!-- Calculus&#45;&gt;DifferentialEquations -->
<g id="edge14" class="edge">
<title>Calculus&#45;&gt;DifferentialEquations</title>
<path fill="none" stroke="black" d="M254.35,-378.05C264.53,-389.52 278.76,-405.54 290.53,-418.81"/>
<polygon fill="black" stroke="black" points="288.23,-421.49 297.48,-426.64 293.46,-416.84 288.23,-421.49"/>
</g>
<!-- NumericalAnalysis -->
<g id="node21" class="node">
<title>NumericalAnalysis</title>
<ellipse fill="none" stroke="black" cx="295" cy="-516" rx="42.8" ry="18"/>
<text text-anchor="middle" x="295" y="-514.7" font-family="Times,serif" font-size="6.00">Numerical Analysis</text>
</g>
<!-- Calculus&#45;&gt;NumericalAnalysis -->
<g id="edge15" class="edge">
<title>Calculus&#45;&gt;NumericalAnalysis</title>
<path fill="none" stroke="black" d="M240.47,-380.13C240.44,-401.98 242.57,-440.46 256,-470 259.49,-477.68 264.71,-485.03 270.21,-491.49"/>
<polygon fill="black" stroke="black" points="267.89,-494.13 277.22,-499.14 273.05,-489.4 267.89,-494.13"/>
</g>
<!-- Thermodynamics -->
<g id="node31" class="node">
<title>Thermodynamics</title>
<ellipse fill="none" stroke="black" cx="541" cy="-444" rx="38.5" ry="18"/>
<text text-anchor="middle" x="541" y="-442.7" font-family="Times,serif" font-size="6.00">Thermodynamics</text>
</g>
<!-- Calculus&#45;&gt;Thermodynamics -->
<g id="edge46" class="edge">
<title>Calculus&#45;&gt;Thermodynamics</title>
<path fill="none" stroke="#91bdff" stroke-dasharray="5,2" d="M261.03,-374.2C266.1,-376.54 271.63,-378.69 277,-380 299.79,-385.57 466.59,-378.41 488,-388 502.51,-394.5 515.06,-406.97 524.29,-418.4"/>
<polygon fill="#91bdff" stroke="#91bdff" points="521.57,-420.6 530.41,-426.44 527.14,-416.36 521.57,-420.6"/>
</g>
<!-- DiscreteMathematics&#45;&gt;NumericalAnalysis -->
<g id="edge18" class="edge">
<title>DiscreteMathematics&#45;&gt;NumericalAnalysis</title>
<path fill="none" stroke="black" d="M187.47,-458.83C208.26,-469.69 237.37,-484.89 260.06,-496.75"/>
<polygon fill="black" stroke="black" points="258.55,-499.91 269.04,-501.44 261.79,-493.7 258.55,-499.91"/>
</g>
<!-- CombinatorialGameTheory -->
<g id="node22" class="node">
<title>CombinatorialGameTheory</title>
<ellipse fill="none" stroke="black" cx="74" cy="-516" rx="58.1" ry="18"/>
<text text-anchor="middle" x="74" y="-514.7" font-family="Times,serif" font-size="6.00">Combinatorial Game Theory</text>
</g>
<!-- DiscreteMathematics&#45;&gt;CombinatorialGameTheory -->
<g id="edge19" class="edge">
<title>DiscreteMathematics&#45;&gt;CombinatorialGameTheory</title>
<path fill="none" stroke="black" d="M141.69,-460.54C130.03,-469.92 114.97,-482.04 102.01,-492.46"/>
<polygon fill="black" stroke="black" points="99.45,-490.03 93.86,-499.02 103.84,-495.48 99.45,-490.03"/>
</g>
<!-- Cryptography -->
<g id="node23" class="node">
<title>Cryptography</title>
<ellipse fill="none" stroke="black" cx="202" cy="-516" rx="32.4" ry="18"/>
<text text-anchor="middle" x="202" y="-514.7" font-family="Times,serif" font-size="6.00">Cryptography</text>
</g>
<!-- DiscreteMathematics&#45;&gt;Cryptography -->
<g id="edge20" class="edge">
<title>DiscreteMathematics&#45;&gt;Cryptography</title>
<path fill="none" stroke="black" d="M170.92,-461.95C175.83,-470.32 181.85,-480.6 187.28,-489.87"/>
<polygon fill="black" stroke="black" points="184.37,-491.83 192.45,-498.69 190.41,-488.3 184.37,-491.83"/>
</g>
<!-- GraphTheory -->
<g id="node24" class="node">
<title>GraphTheory</title>
<ellipse fill="none" stroke="black" cx="223" cy="-588.38" rx="32.4" ry="18"/>
<text text-anchor="middle" x="223" y="-587.08" font-family="Times,serif" font-size="6.00">Graph Theory</text>
</g>
<!-- DiscreteMathematics&#45;&gt;GraphTheory -->
<g id="edge21" class="edge">
<title>DiscreteMathematics&#45;&gt;GraphTheory</title>
<path fill="none" stroke="black" d="M156.54,-462.2C152.25,-482.48 148.12,-516.62 161,-542 167.19,-554.2 178.37,-563.91 189.56,-571.17"/>
<polygon fill="black" stroke="black" points="188.05,-574.35 198.43,-576.46 191.63,-568.33 188.05,-574.35"/>
</g>
<!-- Arithmetic -->
<g id="node17" class="node">
<title>Arithmetic</title>
<ellipse fill="none" stroke="black" cx="255" cy="-136" rx="27.5" ry="18"/>
<text text-anchor="middle" x="255" y="-134.7" font-family="Times,serif" font-size="6.00">Arithmetic</text>
</g>
<!-- Arithmetic&#45;&gt;Rocket -->
<g id="edge38" class="edge">
<title>Arithmetic&#45;&gt;Rocket</title>
<path fill="none" stroke="#91bdff" stroke-dasharray="5,2" d="M276.16,-147.82C281.25,-150.11 286.74,-152.34 292,-154 438.92,-200.41 974,-124.92 974,-279 974,-279 974,-279 974,-445 974,-473.42 952.32,-498.94 855,-542 796.62,-567.83 724.04,-578.97 673.47,-583.76"/>
<polygon fill="#91bdff" stroke="#91bdff" points="673,-580.29 663.35,-584.67 673.62,-587.26 673,-580.29"/>
</g>
<!-- Arithmetic&#45;&gt;Algebra -->
<g id="edge10" class="edge">
<title>Arithmetic&#45;&gt;Algebra</title>
<path fill="none" stroke="black" d="M275.57,-148.25C296.65,-159.78 329.65,-177.82 353.51,-190.88"/>
<polygon fill="black" stroke="black" points="352.03,-194.05 362.49,-195.78 355.39,-187.91 352.03,-194.05"/>
</g>
<!-- Probability -->
<g id="node18" class="node">
<title>Probability</title>
<ellipse fill="none" stroke="black" cx="49" cy="-362" rx="28.1" ry="18"/>
<text text-anchor="middle" x="49" y="-360.7" font-family="Times,serif" font-size="6.00">Probability</text>
</g>
<!-- Arithmetic&#45;&gt;Probability -->
<g id="edge11" class="edge">
<title>Arithmetic&#45;&gt;Probability</title>
<path fill="none" stroke="black" d="M229.62,-143.72C203.98,-151.5 164.37,-166.37 137,-190 91.84,-228.99 66.85,-296.87 55.87,-334.31"/>
<polygon fill="black" stroke="black" points="52.48,-333.44 53.14,-344.01 59.22,-335.33 52.48,-333.44"/>
</g>
<!-- Statistics -->
<g id="node19" class="node">
<title>Statistics</title>
<ellipse fill="none" stroke="black" cx="173" cy="-208" rx="27" ry="18"/>
<text text-anchor="middle" x="173" y="-206.7" font-family="Times,serif" font-size="6.00">Statistics</text>
</g>
<!-- Arithmetic&#45;&gt;Statistics -->
<g id="edge12" class="edge">
<title>Arithmetic&#45;&gt;Statistics</title>
<path fill="none" stroke="black" d="M238.8,-150.83C226.82,-161.06 210.31,-175.15 196.82,-186.66"/>
<polygon fill="black" stroke="black" points="194.22,-184.28 188.89,-193.44 198.77,-189.61 194.22,-184.28"/>
</g>
<!-- Probability&#45;&gt;CombinatorialGameTheory -->
<g id="edge33" class="edge">
<title>Probability&#45;&gt;CombinatorialGameTheory</title>
<path fill="none" stroke="black" d="M51.82,-380.14C56.11,-406.25 64.34,-456.26 69.48,-487.49"/>
<polygon fill="black" stroke="black" points="66.08,-488.39 71.15,-497.69 72.98,-487.25 66.08,-488.39"/>
</g>
<!-- Statistics&#45;&gt;CombinatorialGameTheory -->
<g id="edge34" class="edge">
<title>Statistics&#45;&gt;CombinatorialGameTheory</title>
<path fill="none" stroke="black" d="M166.09,-225.57C153.18,-256.9 124.98,-327.18 106,-388 95.34,-422.15 85.7,-462.29 79.85,-488.16"/>
<polygon fill="black" stroke="black" points="76.42,-487.47 77.65,-497.99 83.25,-488.99 76.42,-487.47"/>
</g>
<!-- DifferentialEquations&#45;&gt;Rocket -->
<g id="edge39" class="edge">
<title>DifferentialEquations&#45;&gt;Rocket</title>
<path fill="none" stroke="#91bdff" stroke-dasharray="5,2" d="M344.01,-457.48C366.15,-466.89 395.69,-481.06 419,-498 441.12,-514.07 438.62,-527.82 462,-542 490.61,-559.36 526.36,-570.51 555.77,-577.42"/>
<polygon fill="#91bdff" stroke="#91bdff" points="555.37,-580.92 565.89,-579.69 556.9,-574.09 555.37,-580.92"/>
</g>
<!-- DifferentialEquations&#45;&gt;Topology -->
<g id="edge16" class="edge">
<title>DifferentialEquations&#45;&gt;Topology</title>
<path fill="none" stroke="black" d="M328.47,-461.24C338.22,-470.86 350.71,-483.16 361.26,-493.57"/>
<polygon fill="black" stroke="black" points="358.97,-496.22 368.55,-500.75 363.88,-491.24 358.97,-496.22"/>
</g>
<!-- DifferentialEquations&#45;&gt;NumericalAnalysis -->
<g id="edge17" class="edge">
<title>DifferentialEquations&#45;&gt;NumericalAnalysis</title>
<path fill="none" stroke="black" d="M307.88,-461.95C305.99,-469.74 303.7,-479.18 301.58,-487.92"/>
<polygon fill="black" stroke="black" points="298.15,-487.18 299.2,-497.72 304.96,-488.83 298.15,-487.18"/>
</g>
<!-- NumericalAnalysis&#45;&gt;Rocket -->
<g id="edge40" class="edge">
<title>NumericalAnalysis&#45;&gt;Rocket</title>
<path fill="none" stroke="#91bdff" stroke-dasharray="5,2" d="M320.07,-530.79C328.44,-534.92 337.93,-539.11 347,-542 415.3,-563.8 497.04,-575.77 551.51,-581.87"/>
<polygon fill="#91bdff" stroke="#91bdff" points="551.37,-585.38 561.69,-582.98 552.12,-578.42 551.37,-585.38"/>
</g>
<!-- NumericalAnalysis&#45;&gt;GraphTheory -->
<g id="edge30" class="edge">
<title>NumericalAnalysis&#45;&gt;GraphTheory</title>
<path fill="none" stroke="black" d="M278.66,-532.97C268.91,-542.5 256.39,-554.74 245.69,-565.2"/>
<polygon fill="black" stroke="black" points="242.99,-562.95 238.29,-572.44 247.89,-567.95 242.99,-562.95"/>
</g>
<!-- Geometry -->
<g id="node25" class="node">
<title>Geometry</title>
<ellipse fill="none" stroke="black" cx="275" cy="-280" rx="27" ry="18"/>
<text text-anchor="middle" x="275" y="-278.7" font-family="Times,serif" font-size="6.00">Geometry</text>
</g>
<!-- Geometry&#45;&gt;Rocket -->
<g id="edge41" class="edge">
<title>Geometry&#45;&gt;Rocket</title>
<path fill="none" stroke="#91bdff" stroke-dasharray="5,2" d="M295.02,-292.26C300.08,-294.6 305.62,-296.74 311,-298 332.26,-302.99 686.96,-292.34 704,-306 785.82,-371.62 770.91,-461.22 704,-542 692.9,-555.4 676.87,-565.19 661.29,-572.16"/>
<polygon fill="#91bdff" stroke="#91bdff" points="659.58,-569.08 651.69,-576.15 662.27,-575.54 659.58,-569.08"/>
</g>
<!-- Geometry&#45;&gt;Topology -->
<g id="edge22" class="edge">
<title>Geometry&#45;&gt;Topology</title>
<path fill="none" stroke="black" d="M295.55,-291.89C300.5,-294.18 305.85,-296.39 311,-298 331.64,-304.46 344.1,-290.32 359,-306 405.95,-355.4 397.21,-443.84 389.01,-488.15"/>
<polygon fill="black" stroke="black" points="385.54,-487.67 387.03,-498.16 392.41,-489.03 385.54,-487.67"/>
</g>
<!-- Geometry&#45;&gt;Calculus -->
<g id="edge23" class="edge">
<title>Geometry&#45;&gt;Calculus</title>
<path fill="none" stroke="black" d="M267.96,-297.58C263.35,-308.41 257.24,-322.78 252,-335.11"/>
<polygon fill="black" stroke="black" points="248.73,-333.87 248.04,-344.45 255.17,-336.61 248.73,-333.87"/>
</g>
<!-- Geometry&#45;&gt;NumericalAnalysis -->
<g id="edge24" class="edge">
<title>Geometry&#45;&gt;NumericalAnalysis</title>
<path fill="none" stroke="black" d="M254.37,-291.65C249.42,-293.95 244.09,-296.22 239,-298 224.34,-303.12 214.64,-293.83 205,-306 184.58,-331.78 190.08,-350.69 205,-380 207.74,-385.39 212.6,-383 216,-388 237.13,-419.13 216.36,-438.55 237,-470 243.43,-479.79 252.71,-488.35 261.97,-495.3"/>
<polygon fill="black" stroke="black" points="260.2,-498.33 270.39,-501.22 264.22,-492.6 260.2,-498.33"/>
</g>
<!-- Trigonometry -->
<g id="node26" class="node">
<title>Trigonometry</title>
<ellipse fill="none" stroke="black" cx="318" cy="-362" rx="32.4" ry="18"/>
<text text-anchor="middle" x="318" y="-360.7" font-family="Times,serif" font-size="6.00">Trigonometry</text>
</g>
<!-- Geometry&#45;&gt;Trigonometry -->
<g id="edge25" class="edge">
<title>Geometry&#45;&gt;Trigonometry</title>
<path fill="none" stroke="black" d="M283.7,-297.19C289.61,-308.18 297.54,-322.93 304.29,-335.49"/>
<polygon fill="black" stroke="black" points="301.35,-337.41 309.16,-344.56 307.51,-334.09 301.35,-337.41"/>
</g>
<!-- Trigonometry&#45;&gt;DifferentialEquations -->
<g id="edge35" class="edge">
<title>Trigonometry&#45;&gt;DifferentialEquations</title>
<path fill="none" stroke="black" d="M316.7,-380.36C315.92,-390.7 314.92,-404.06 314.04,-415.78"/>
<polygon fill="black" stroke="black" points="310.54,-415.72 313.28,-425.95 317.52,-416.24 310.54,-415.72"/>
</g>
<!-- Infinity -->
<g id="node27" class="node">
<title>Infinity</title>
<ellipse fill="none" stroke="black" cx="255" cy="-64" rx="27" ry="18"/>
<text text-anchor="middle" x="255" y="-62.7" font-family="Times,serif" font-size="6.00">Infinity</text>
</g>
<!-- Infinity&#45;&gt;Arithmetic -->
<g id="edge26" class="edge">
<title>Infinity&#45;&gt;Arithmetic</title>
<path fill="none" stroke="black" d="M255,-82.3C255,-90.02 255,-99.29 255,-107.89"/>
<polygon fill="black" stroke="black" points="251.5,-107.9 255,-117.9 258.5,-107.9 251.5,-107.9"/>
</g>
<!-- NumberTheory -->
<g id="node28" class="node">
<title>NumberTheory</title>
<ellipse fill="none" stroke="black" cx="337" cy="-136" rx="36.1" ry="18"/>
<text text-anchor="middle" x="337" y="-134.7" font-family="Times,serif" font-size="6.00">Number Theory</text>
</g>
<!-- NumberTheory&#45;&gt;Algebra -->
<g id="edge28" class="edge">
<title>NumberTheory&#45;&gt;Algebra</title>
<path fill="none" stroke="black" d="M347.67,-153.24C353.44,-162.02 360.68,-173.04 367.1,-182.81"/>
<polygon fill="black" stroke="black" points="364.29,-184.9 372.71,-191.33 370.14,-181.06 364.29,-184.9"/>
</g>
<!-- NumberTheory&#45;&gt;LinearAlgebra -->
<g id="edge29" class="edge">
<title>NumberTheory&#45;&gt;LinearAlgebra</title>
<path fill="none" stroke="black" d="M338.73,-154.09C340.58,-172.02 343.71,-201.03 347,-226 348.11,-234.43 349.45,-243.6 350.71,-251.9"/>
<polygon fill="black" stroke="black" points="347.26,-252.49 352.24,-261.84 354.17,-251.42 347.26,-252.49"/>
</g>
<!-- OrderOfOperations -->
<g id="node29" class="node">
<title>OrderOfOperations</title>
<ellipse fill="none" stroke="black" cx="355" cy="-64" rx="44" ry="18"/>
<text text-anchor="middle" x="355" y="-62.7" font-family="Times,serif" font-size="6.00">Order of Operations</text>
</g>
<!-- OrderOfOperations&#45;&gt;Algebra -->
<g id="edge31" class="edge">
<title>OrderOfOperations&#45;&gt;Algebra</title>
<path fill="none" stroke="black" d="M366.13,-81.87C372.09,-91.91 378.84,-105.16 382,-118 387.01,-138.35 386.99,-162.12 385.87,-179.97"/>
<polygon fill="black" stroke="black" points="382.37,-179.74 385.08,-189.98 389.35,-180.28 382.37,-179.74"/>
</g>
<!-- OrderOfOperations&#45;&gt;Arithmetic -->
<g id="edge32" class="edge">
<title>OrderOfOperations&#45;&gt;Arithmetic</title>
<path fill="none" stroke="black" d="M333.79,-79.85C318.6,-90.48 298.04,-104.87 281.72,-116.29"/>
<polygon fill="black" stroke="black" points="279.35,-113.69 273.16,-122.29 283.36,-119.42 279.35,-113.69"/>
</g>
<!-- Chemistry&#45;&gt;Rocket -->
<g id="edge47" class="edge">
<title>Chemistry&#45;&gt;Rocket</title>
<path fill="none" stroke="#57ff57" stroke-dasharray="5,2" d="M564.09,-371.55C573.55,-374.72 584.67,-378.01 595,-380 606.6,-382.23 692.97,-379.34 701,-388 749.53,-440.33 678.53,-523.54 637.58,-563.9"/>
<polygon fill="#57ff57" stroke="#57ff57" points="635.07,-561.45 630.31,-570.92 639.94,-566.48 635.07,-561.45"/>
</g>
<!-- Chemistry&#45;&gt;Thermodynamics -->
<g id="edge42" class="edge">
<title>Chemistry&#45;&gt;Thermodynamics</title>
<path fill="none" stroke="black" d="M541,-380.36C541,-390.7 541,-404.06 541,-415.78"/>
<polygon fill="black" stroke="black" points="537.5,-415.95 541,-425.95 544.5,-415.95 537.5,-415.95"/>
</g>
<!-- Thermodynamics&#45;&gt;Rocket -->
<g id="edge48" class="edge">
<title>Thermodynamics&#45;&gt;Rocket</title>
<path fill="none" stroke="#57ff57" stroke-dasharray="5,2" d="M560.12,-459.71C571.38,-469.39 584.95,-483.01 593,-498 603.29,-517.16 608.01,-541.44 610.17,-559.85"/>
<polygon fill="#57ff57" stroke="#57ff57" points="606.7,-560.33 611.17,-569.93 613.66,-559.63 606.7,-560.33"/>
</g>
<!-- MaterialsScience -->
<g id="node34" class="node">
<title>MaterialsScience</title>
<ellipse fill="none" stroke="black" cx="544" cy="-516" rx="39.7" ry="18"/>
<text text-anchor="middle" x="544" y="-514.7" font-family="Times,serif" font-size="6.00">Materials Science</text>
</g>
<!-- Thermodynamics&#45;&gt;MaterialsScience -->
<g id="edge45" class="edge">
<title>Thermodynamics&#45;&gt;MaterialsScience</title>
<path fill="none" stroke="black" d="M541.74,-462.3C542.07,-470.02 542.47,-479.29 542.84,-487.89"/>
<polygon fill="black" stroke="black" points="539.34,-488.05 543.27,-497.9 546.34,-487.75 539.34,-488.05"/>
</g>
<!-- ClassicalMechanics -->
<g id="node32" class="node">
<title>ClassicalMechanics</title>
<ellipse fill="none" stroke="black" cx="647" cy="-362" rx="43.4" ry="18"/>
<text text-anchor="middle" x="647" y="-360.7" font-family="Times,serif" font-size="6.00">Classical Mechanics</text>
</g>
<!-- RelativisticMechanics -->
<g id="node33" class="node">
<title>RelativisticMechanics</title>
<ellipse fill="none" stroke="black" cx="645" cy="-444" rx="47.1" ry="18"/>
<text text-anchor="middle" x="645" y="-442.7" font-family="Times,serif" font-size="6.00">Relativistic Mechanics</text>
</g>
<!-- ClassicalMechanics&#45;&gt;RelativisticMechanics -->
<g id="edge44" class="edge">
<title>ClassicalMechanics&#45;&gt;RelativisticMechanics</title>
<path fill="none" stroke="black" d="M646.57,-380.36C646.31,-390.7 645.97,-404.06 645.68,-415.78"/>
<polygon fill="black" stroke="black" points="642.18,-415.87 645.43,-425.95 649.18,-416.04 642.18,-415.87"/>
</g>
<!-- Statics -->
<g id="node35" class="node">
<title>Statics</title>
<ellipse fill="none" stroke="black" cx="813" cy="-444" rx="27" ry="18"/>
<text text-anchor="middle" x="813" y="-442.7" font-family="Times,serif" font-size="6.00">Statics</text>
</g>
<!-- ClassicalMechanics&#45;&gt;Statics -->
<g id="edge50" class="edge">
<title>ClassicalMechanics&#45;&gt;Statics</title>
<path fill="none" stroke="#57ff57" stroke-dasharray="5,2" d="M684.81,-370.98C700.46,-375.02 718.53,-380.64 734,-388 753.55,-397.3 773.55,-411.28 788.53,-422.81"/>
<polygon fill="#57ff57" stroke="#57ff57" points="786.71,-425.83 796.74,-429.27 791.04,-420.33 786.71,-425.83"/>
</g>
<!-- MaterialsScience&#45;&gt;Rocket -->
<g id="edge49" class="edge">
<title>MaterialsScience&#45;&gt;Rocket</title>
<path fill="none" stroke="#57ff57" stroke-dasharray="5,2" d="M559.43,-532.97C568.05,-541.89 578.96,-553.19 588.61,-563.18"/>
<polygon fill="#57ff57" stroke="#57ff57" points="586.22,-565.74 595.68,-570.5 591.25,-560.87 586.22,-565.74"/>
</g>
</g>
</svg>
