<?xml version="1.0" encoding="UTF-8" standalone="no"?>
<!DOCTYPE svg PUBLIC "-//W3C//DTD SVG 1.1//EN"
 "http://www.w3.org/Graphics/SVG/1.1/DTD/svg11.dtd">
<!-- Generated by graphviz version 2.43.0 (0)
 -->
<!-- Title: G Pages: 1 -->
<svg width="2061pt" height="732pt"
 viewBox="0.00 0.00 2060.64 732.04" xmlns="http://www.w3.org/2000/svg" xmlns:xlink="http://www.w3.org/1999/xlink">
<g id="graph0" class="graph" transform="scale(1 1) rotate(0) translate(4 728.04)">
<title>G</title>
<polygon fill="white" stroke="transparent" points="-4,4 -4,-728.04 2056.64,-728.04 2056.64,4 -4,4"/>
<g id="clust3" class="cluster">
<title>cluster_math</title>
<g id="a_clust3"><a xlink:href="https://simple.wikipedia.org/wiki/List_of_mathematics_topics" xlink:title="Math">
<polygon fill="none" stroke="black" points="8,-8 8,-650.78 1095,-650.78 1095,-8 8,-8"/>
<text text-anchor="middle" x="53.5" y="-20.6" font-family="Times,serif" font-size="28.00" fill="#91bdff">Math</text>
</a>
</g>
</g>
<g id="clust20" class="cluster">
<title>cluster_science</title>
<g id="a_clust20"><a xlink:href="https://en.wikipedia.org/wiki/Branches_of_science#Physical_science" xlink:title="Science">
<polygon fill="none" stroke="black" points="1173,-329.39 1173,-575.19 1443,-575.19 1443,-329.39 1173,-329.39"/>
<text text-anchor="middle" x="1237" y="-341.99" font-family="Times,serif" font-size="28.00" fill="#57ff57">Science</text>
</a>
</g>
</g>
<!-- GoToSpace -->
<g id="node1" class="node">
<title>GoToSpace</title>
<ellipse fill="black" stroke="black" cx="1463" cy="-701.41" rx="106.13" ry="22.76"/>
<text text-anchor="middle" x="1463" y="-695.81" font-family="Times,serif" font-size="22.00" fill="white">Go to Space</text>
</g>
<!-- EthicalHacker -->
<g id="node2" class="node">
<title>EthicalHacker</title>
<ellipse fill="black" stroke="black" cx="1820" cy="-701.41" rx="232.78" ry="22.76"/>
<text text-anchor="middle" x="1820" y="-695.81" font-family="Times,serif" font-size="22.00" fill="white">Ethically Hack into a Server</text>
</g>
<!-- Rocket -->
<g id="node3" class="node">
<title>Rocket</title>
<ellipse fill="yellow" stroke="yellow" cx="1463" cy="-622.98" rx="56.64" ry="19.6"/>
<text text-anchor="middle" x="1463" y="-618.58" font-family="Times,serif" font-size="18.00">Rocket</text>
</g>
<!-- Rocket&#45;&gt;GoToSpace -->
<g id="edge1" class="edge">
<title>Rocket&#45;&gt;GoToSpace</title>
<path fill="none" stroke="black" d="M1463,-642.88C1463,-650.61 1463,-659.77 1463,-668.48"/>
<polygon fill="black" stroke="black" points="1459.5,-668.76 1463,-678.76 1466.5,-668.76 1459.5,-668.76"/>
</g>
<!-- Algebra -->
<g id="node4" class="node">
<title>Algebra</title>
<ellipse fill="none" stroke="black" cx="812" cy="-225.99" rx="61.54" ry="19.6"/>
<text text-anchor="middle" x="812" y="-221.59" font-family="Times,serif" font-size="18.00">Algebra</text>
</g>
<!-- Algebra&#45;&gt;Rocket -->
<g id="edge33" class="edge">
<title>Algebra&#45;&gt;Rocket</title>
<path fill="none" stroke="#91bdff" stroke-dasharray="5,2" d="M873.63,-227.44C1055.46,-230.42 1577,-251.47 1577,-395.19 1577,-395.19 1577,-395.19 1577,-472.79 1577,-526.28 1530.16,-572.5 1496.53,-598.79"/>
<polygon fill="#91bdff" stroke="#91bdff" points="1494.15,-596.2 1488.3,-605.03 1498.38,-601.77 1494.15,-596.2"/>
</g>
<!-- Analysis -->
<g id="node5" class="node">
<title>Analysis</title>
<ellipse fill="none" stroke="black" cx="812" cy="-301.59" rx="65.11" ry="19.6"/>
<text text-anchor="middle" x="812" y="-297.19" font-family="Times,serif" font-size="18.00">Analysis</text>
</g>
<!-- Algebra&#45;&gt;Analysis -->
<g id="edge2" class="edge">
<title>Algebra&#45;&gt;Analysis</title>
<path fill="none" stroke="black" d="M812,-245.95C812,-253.76 812,-262.99 812,-271.61"/>
<polygon fill="black" stroke="black" points="808.5,-271.7 812,-281.7 815.5,-271.7 808.5,-271.7"/>
</g>
<!-- LinearAlgebra -->
<g id="node6" class="node">
<title>LinearAlgebra</title>
<ellipse fill="none" stroke="black" cx="621" cy="-301.59" rx="107.46" ry="19.6"/>
<text text-anchor="middle" x="621" y="-297.19" font-family="Times,serif" font-size="18.00">Linear Algebra</text>
</g>
<!-- Algebra&#45;&gt;LinearAlgebra -->
<g id="edge3" class="edge">
<title>Algebra&#45;&gt;LinearAlgebra</title>
<path fill="none" stroke="black" d="M773.81,-241.71C745.49,-252.62 706.51,-267.64 675.01,-279.78"/>
<polygon fill="black" stroke="black" points="673.56,-276.59 665.49,-283.45 676.08,-283.12 673.56,-276.59"/>
</g>
<!-- Topology -->
<g id="node7" class="node">
<title>Topology</title>
<ellipse fill="none" stroke="black" cx="1018" cy="-547.39" rx="69.09" ry="19.6"/>
<text text-anchor="middle" x="1018" y="-542.99" font-family="Times,serif" font-size="18.00">Topology</text>
</g>
<!-- Algebra&#45;&gt;Topology -->
<g id="edge4" class="edge">
<title>Algebra&#45;&gt;Topology</title>
<path fill="none" stroke="black" d="M868.86,-233.8C931.29,-242.31 1026.36,-258.61 1054,-281.79 1125.6,-341.84 1105.2,-405.86 1068,-491.59 1063.24,-502.55 1055.36,-512.77 1047.25,-521.34"/>
<polygon fill="black" stroke="black" points="1044.75,-518.89 1040.13,-528.43 1049.69,-523.85 1044.75,-518.89"/>
</g>
<!-- Chemistry -->
<g id="node23" class="node">
<title>Chemistry</title>
<ellipse fill="none" stroke="black" cx="1308" cy="-396.19" rx="77.56" ry="19.6"/>
<text text-anchor="middle" x="1308" y="-391.79" font-family="Times,serif" font-size="18.00">Chemistry</text>
</g>
<!-- Algebra&#45;&gt;Chemistry -->
<g id="edge40" class="edge">
<title>Algebra&#45;&gt;Chemistry</title>
<path fill="none" stroke="#91bdff" stroke-dasharray="5,2" d="M869.38,-233.36C926.69,-240.85 1016.71,-255.7 1091,-281.79 1158.07,-305.35 1230.11,-346.52 1272.01,-372.24"/>
<polygon fill="#91bdff" stroke="#91bdff" points="1270.39,-375.35 1280.73,-377.64 1274.07,-369.4 1270.39,-375.35"/>
</g>
<!-- Calculus -->
<g id="node8" class="node">
<title>Calculus</title>
<ellipse fill="none" stroke="black" cx="765" cy="-396.19" rx="66.44" ry="19.6"/>
<text text-anchor="middle" x="765" y="-391.79" font-family="Times,serif" font-size="18.00">Calculus</text>
</g>
<!-- Analysis&#45;&gt;Calculus -->
<g id="edge5" class="edge">
<title>Analysis&#45;&gt;Calculus</title>
<path fill="none" stroke="black" d="M802.49,-321.33C795.8,-334.51 786.73,-352.37 779.19,-367.23"/>
<polygon fill="black" stroke="black" points="775.9,-365.98 774.5,-376.48 782.14,-369.15 775.9,-365.98"/>
</g>
<!-- DiscreteMathematics -->
<g id="node9" class="node">
<title>DiscreteMathematics</title>
<ellipse fill="none" stroke="black" cx="488" cy="-471.79" rx="153.38" ry="19.6"/>
<text text-anchor="middle" x="488" y="-467.39" font-family="Times,serif" font-size="18.00">Discrete Mathematics</text>
</g>
<!-- Analysis&#45;&gt;DiscreteMathematics -->
<g id="edge6" class="edge">
<title>Analysis&#45;&gt;DiscreteMathematics</title>
<path fill="none" stroke="black" d="M765.02,-315.5C755.78,-317.72 746.13,-319.81 737,-321.39 700.92,-327.64 688.73,-315.14 655,-329.39 594.35,-355.03 539.28,-410.76 510.03,-444.09"/>
<polygon fill="black" stroke="black" points="507.05,-442.19 503.16,-452.05 512.35,-446.76 507.05,-442.19"/>
</g>
<!-- DifferentialEquations -->
<g id="node13" class="node">
<title>DifferentialEquations</title>
<ellipse fill="none" stroke="black" cx="894" cy="-471.79" rx="153.38" ry="19.6"/>
<text text-anchor="middle" x="894" y="-467.39" font-family="Times,serif" font-size="18.00">Differential Equations</text>
</g>
<!-- LinearAlgebra&#45;&gt;DifferentialEquations -->
<g id="edge24" class="edge">
<title>LinearAlgebra&#45;&gt;DifferentialEquations</title>
<path fill="none" stroke="black" d="M627.5,-321.77C637.1,-347.19 657.55,-391.66 690,-415.99 715.02,-434.75 746.01,-447.09 776.21,-455.21"/>
<polygon fill="black" stroke="black" points="775.42,-458.62 785.98,-457.7 777.15,-451.84 775.42,-458.62"/>
</g>
<!-- Calculus&#45;&gt;Rocket -->
<g id="edge34" class="edge">
<title>Calculus&#45;&gt;Rocket</title>
<path fill="none" stroke="#91bdff" stroke-dasharray="5,2" d="M813.28,-409.9C822.14,-412.06 831.33,-414.18 840,-415.99 935.28,-435.84 969.4,-407.57 1056,-451.99 1098.39,-473.73 1100.43,-491.91 1132,-527.59 1149.76,-547.65 1145.94,-561.55 1169,-575.19 1206.71,-597.48 1323.4,-610.77 1397.93,-617.2"/>
<polygon fill="#91bdff" stroke="#91bdff" points="1397.9,-620.71 1408.16,-618.07 1398.49,-613.74 1397.9,-620.71"/>
</g>
<!-- Calculus&#45;&gt;DiscreteMathematics -->
<g id="edge10" class="edge">
<title>Calculus&#45;&gt;DiscreteMathematics</title>
<path fill="none" stroke="black" d="M717.07,-409.93C674.4,-421.26 611.32,-438.02 562.16,-451.09"/>
<polygon fill="black" stroke="black" points="560.97,-447.78 552.2,-453.73 562.77,-454.55 560.97,-447.78"/>
</g>
<!-- Calculus&#45;&gt;DifferentialEquations -->
<g id="edge11" class="edge">
<title>Calculus&#45;&gt;DifferentialEquations</title>
<path fill="none" stroke="black" d="M794.6,-414.08C811.8,-423.89 833.76,-436.42 852.66,-447.2"/>
<polygon fill="black" stroke="black" points="850.95,-450.26 861.37,-452.17 854.42,-444.18 850.95,-450.26"/>
</g>
<!-- NumericalAnalysis -->
<g id="node14" class="node">
<title>NumericalAnalysis</title>
<ellipse fill="none" stroke="black" cx="794" cy="-547.39" rx="136.44" ry="19.6"/>
<text text-anchor="middle" x="794" y="-542.99" font-family="Times,serif" font-size="18.00">Numerical Analysis</text>
</g>
<!-- Calculus&#45;&gt;NumericalAnalysis -->
<g id="edge12" class="edge">
<title>Calculus&#45;&gt;NumericalAnalysis</title>
<path fill="none" stroke="black" d="M750.24,-415.66C736.73,-434.96 720.44,-465.95 732,-491.59 737.21,-503.15 746.2,-513.25 755.74,-521.53"/>
<polygon fill="black" stroke="black" points="753.84,-524.49 763.82,-528.05 758.23,-519.04 753.84,-524.49"/>
</g>
<!-- Thermodynamics -->
<g id="node24" class="node">
<title>Thermodynamics</title>
<ellipse fill="none" stroke="black" cx="1308" cy="-471.79" rx="121.74" ry="19.6"/>
<text text-anchor="middle" x="1308" y="-467.39" font-family="Times,serif" font-size="18.00">Thermodynamics</text>
</g>
<!-- Calculus&#45;&gt;Thermodynamics -->
<g id="edge42" class="edge">
<title>Calculus&#45;&gt;Thermodynamics</title>
<path fill="none" stroke="#91bdff" stroke-dasharray="5,2" d="M812.4,-410.11C821.51,-412.29 831.02,-414.38 840,-415.99 983.91,-441.82 1021.86,-434.33 1167,-451.99 1180.22,-453.6 1194.12,-455.36 1207.84,-457.15"/>
<polygon fill="#91bdff" stroke="#91bdff" points="1207.41,-460.62 1217.78,-458.45 1208.31,-453.68 1207.41,-460.62"/>
</g>
<!-- DiscreteMathematics&#45;&gt;NumericalAnalysis -->
<g id="edge15" class="edge">
<title>DiscreteMathematics&#45;&gt;NumericalAnalysis</title>
<path fill="none" stroke="black" d="M557.44,-489.49C604.78,-500.88 667.53,-515.97 716.5,-527.75"/>
<polygon fill="black" stroke="black" points="715.88,-531.2 726.42,-530.13 717.51,-524.39 715.88,-531.2"/>
</g>
<!-- CombinatorialGameTheory -->
<g id="node15" class="node">
<title>CombinatorialGameTheory</title>
<ellipse fill="none" stroke="black" cx="209" cy="-547.39" rx="193.08" ry="19.6"/>
<text text-anchor="middle" x="209" y="-542.99" font-family="Times,serif" font-size="18.00">Combinatorial Game Theory</text>
</g>
<!-- DiscreteMathematics&#45;&gt;CombinatorialGameTheory -->
<g id="edge16" class="edge">
<title>DiscreteMathematics&#45;&gt;CombinatorialGameTheory</title>
<path fill="none" stroke="black" d="M423.64,-489.77C382.58,-500.6 329.15,-514.69 285.87,-526.11"/>
<polygon fill="black" stroke="black" points="284.72,-522.79 275.95,-528.73 286.51,-529.56 284.72,-522.79"/>
</g>
<!-- Cryptography -->
<g id="node16" class="node">
<title>Cryptography</title>
<ellipse fill="none" stroke="black" cx="540" cy="-547.39" rx="99.9" ry="19.6"/>
<text text-anchor="middle" x="540" y="-542.99" font-family="Times,serif" font-size="18.00">Cryptography</text>
</g>
<!-- DiscreteMathematics&#45;&gt;Cryptography -->
<g id="edge17" class="edge">
<title>DiscreteMathematics&#45;&gt;Cryptography</title>
<path fill="none" stroke="black" d="M501.39,-491.74C507.32,-500.13 514.4,-510.16 520.87,-519.32"/>
<polygon fill="black" stroke="black" points="518.21,-521.61 526.83,-527.75 523.92,-517.57 518.21,-521.61"/>
</g>
<!-- GraphTheory -->
<g id="node17" class="node">
<title>GraphTheory</title>
<ellipse fill="none" stroke="black" cx="607" cy="-622.98" rx="99.9" ry="19.6"/>
<text text-anchor="middle" x="607" y="-618.58" font-family="Times,serif" font-size="18.00">Graph Theory</text>
</g>
<!-- DiscreteMathematics&#45;&gt;GraphTheory -->
<g id="edge18" class="edge">
<title>DiscreteMathematics&#45;&gt;GraphTheory</title>
<path fill="none" stroke="black" d="M460.5,-491.38C449.1,-500.75 437.13,-513.19 431,-527.59 422.71,-547.05 418.11,-558.42 431,-575.19 442.37,-589.97 480.63,-601.07 518.58,-608.73"/>
<polygon fill="black" stroke="black" points="518.25,-612.23 528.73,-610.71 519.58,-605.36 518.25,-612.23"/>
</g>
<!-- Arithmetic -->
<g id="node10" class="node">
<title>Arithmetic</title>
<ellipse fill="none" stroke="black" cx="469" cy="-150.4" rx="79.81" ry="19.6"/>
<text text-anchor="middle" x="469" y="-146" font-family="Times,serif" font-size="18.00">Arithmetic</text>
</g>
<!-- Arithmetic&#45;&gt;Rocket -->
<g id="edge35" class="edge">
<title>Arithmetic&#45;&gt;Rocket</title>
<path fill="none" stroke="#91bdff" stroke-dasharray="5,2" d="M526.3,-164.36C536.81,-166.49 547.71,-168.54 558,-170.2 701.49,-193.24 738.69,-188.99 883,-206.2 1146.38,-237.6 1212,-247.34 1475,-281.79 1537.25,-289.95 1615,-237.81 1615,-300.59 1615,-300.59 1615,-300.59 1615,-472.79 1615,-525.09 1594.96,-539.2 1557,-575.19 1544.18,-587.34 1527.6,-596.99 1511.94,-604.3"/>
<polygon fill="#91bdff" stroke="#91bdff" points="1510.08,-601.3 1502.35,-608.55 1512.91,-607.7 1510.08,-601.3"/>
</g>
<!-- Arithmetic&#45;&gt;Algebra -->
<g id="edge7" class="edge">
<title>Arithmetic&#45;&gt;Algebra</title>
<path fill="none" stroke="black" d="M527.57,-163.97C590.23,-177.41 689.1,-198.62 752.22,-212.17"/>
<polygon fill="black" stroke="black" points="751.52,-215.6 762.03,-214.27 752.99,-208.75 751.52,-215.6"/>
</g>
<!-- Probability -->
<g id="node11" class="node">
<title>Probability</title>
<ellipse fill="none" stroke="black" cx="213" cy="-396.19" rx="82.05" ry="19.6"/>
<text text-anchor="middle" x="213" y="-391.79" font-family="Times,serif" font-size="18.00">Probability</text>
</g>
<!-- Arithmetic&#45;&gt;Probability -->
<g id="edge8" class="edge">
<title>Arithmetic&#45;&gt;Probability</title>
<path fill="none" stroke="black" d="M406.74,-162.82C376.66,-170.88 341.62,-184.27 316,-206.2 264.96,-249.87 234.81,-325.4 221.38,-366.51"/>
<polygon fill="black" stroke="black" points="218,-365.59 218.33,-376.18 224.68,-367.7 218,-365.59"/>
</g>
<!-- Statistics -->
<g id="node12" class="node">
<title>Statistics</title>
<ellipse fill="none" stroke="black" cx="396" cy="-225.99" rx="71.34" ry="19.6"/>
<text text-anchor="middle" x="396" y="-221.59" font-family="Times,serif" font-size="18.00">Statistics</text>
</g>
<!-- Arithmetic&#45;&gt;Statistics -->
<g id="edge9" class="edge">
<title>Arithmetic&#45;&gt;Statistics</title>
<path fill="none" stroke="black" d="M450.58,-169.97C441.69,-178.93 430.9,-189.81 421.26,-199.53"/>
<polygon fill="black" stroke="black" points="418.72,-197.12 414.16,-206.68 423.69,-202.05 418.72,-197.12"/>
</g>
<!-- Probability&#45;&gt;CombinatorialGameTheory -->
<g id="edge30" class="edge">
<title>Probability&#45;&gt;CombinatorialGameTheory</title>
<path fill="none" stroke="black" d="M212.49,-416.09C211.81,-441.51 210.59,-486.98 209.79,-516.91"/>
<polygon fill="black" stroke="black" points="206.28,-517.08 209.52,-527.17 213.28,-517.27 206.28,-517.08"/>
</g>
<!-- Statistics&#45;&gt;CombinatorialGameTheory -->
<g id="edge31" class="edge">
<title>Statistics&#45;&gt;CombinatorialGameTheory</title>
<path fill="none" stroke="black" d="M388.16,-245.81C373.45,-280.45 339.91,-356.25 304,-415.99 281.57,-453.3 251.36,-493.37 231.08,-519.1"/>
<polygon fill="black" stroke="black" points="228.09,-517.24 224.61,-527.25 233.57,-521.59 228.09,-517.24"/>
</g>
<!-- DifferentialEquations&#45;&gt;Rocket -->
<g id="edge36" class="edge">
<title>DifferentialEquations&#45;&gt;Rocket</title>
<path fill="none" stroke="#91bdff" stroke-dasharray="5,2" d="M990.54,-487.25C1025.55,-495.44 1064.26,-508.1 1096,-527.59 1120.3,-542.5 1113.84,-561.77 1139,-575.19 1182.53,-598.39 1315.98,-611.64 1397.4,-617.77"/>
<polygon fill="#91bdff" stroke="#91bdff" points="1397.32,-621.27 1407.55,-618.52 1397.84,-614.29 1397.32,-621.27"/>
</g>
<!-- DifferentialEquations&#45;&gt;Topology -->
<g id="edge13" class="edge">
<title>DifferentialEquations&#45;&gt;Topology</title>
<path fill="none" stroke="black" d="M925.29,-491.36C942.03,-501.3 962.77,-513.6 980.38,-524.06"/>
<polygon fill="black" stroke="black" points="978.88,-527.24 989.27,-529.33 982.46,-521.22 978.88,-527.24"/>
</g>
<!-- DifferentialEquations&#45;&gt;NumericalAnalysis -->
<g id="edge14" class="edge">
<title>DifferentialEquations&#45;&gt;NumericalAnalysis</title>
<path fill="none" stroke="black" d="M868.77,-491.36C856.21,-500.6 840.87,-511.89 827.36,-521.83"/>
<polygon fill="black" stroke="black" points="825.21,-519.07 819.23,-527.82 829.35,-524.71 825.21,-519.07"/>
</g>
<!-- NumericalAnalysis&#45;&gt;Rocket -->
<g id="edge37" class="edge">
<title>NumericalAnalysis&#45;&gt;Rocket</title>
<path fill="none" stroke="#91bdff" stroke-dasharray="5,2" d="M870.7,-563.84C892.98,-567.95 917.4,-572.11 940,-575.19 1103.79,-597.5 1297.95,-611.68 1397.28,-618.06"/>
<polygon fill="#91bdff" stroke="#91bdff" points="1397.26,-621.56 1407.46,-618.71 1397.71,-614.58 1397.26,-621.56"/>
</g>
<!-- NumericalAnalysis&#45;&gt;GraphTheory -->
<g id="edge27" class="edge">
<title>NumericalAnalysis&#45;&gt;GraphTheory</title>
<path fill="none" stroke="black" d="M748.73,-566.2C721.85,-576.78 687.65,-590.24 659.58,-601.29"/>
<polygon fill="black" stroke="black" points="657.95,-598.17 649.92,-605.09 660.51,-604.69 657.95,-598.17"/>
</g>
<!-- Geometry -->
<g id="node18" class="node">
<title>Geometry</title>
<ellipse fill="none" stroke="black" cx="970" cy="-301.59" rx="74.91" ry="19.6"/>
<text text-anchor="middle" x="970" y="-297.19" font-family="Times,serif" font-size="18.00">Geometry</text>
</g>
<!-- Geometry&#45;&gt;Rocket -->
<g id="edge38" class="edge">
<title>Geometry&#45;&gt;Rocket</title>
<path fill="none" stroke="#91bdff" stroke-dasharray="5,2" d="M1044.38,-304.26C1174.88,-307.54 1432.71,-315.72 1447,-329.39 1519.31,-398.56 1489.95,-534.16 1472.47,-593.28"/>
<polygon fill="#91bdff" stroke="#91bdff" points="1469.05,-592.49 1469.47,-603.08 1475.74,-594.54 1469.05,-592.49"/>
</g>
<!-- Geometry&#45;&gt;Topology -->
<g id="edge19" class="edge">
<title>Geometry&#45;&gt;Topology</title>
<path fill="none" stroke="black" d="M1033.84,-312.18C1042.5,-316.16 1050.35,-321.71 1056,-329.39 1098.72,-387.45 1077.52,-422.79 1056,-491.59 1052.84,-501.7 1047.08,-511.58 1040.99,-520.11"/>
<polygon fill="black" stroke="black" points="1038.15,-518.07 1034.87,-528.14 1043.71,-522.31 1038.15,-518.07"/>
</g>
<!-- Geometry&#45;&gt;Calculus -->
<g id="edge20" class="edge">
<title>Geometry&#45;&gt;Calculus</title>
<path fill="none" stroke="black" d="M915.41,-315.21C905.63,-317.35 895.53,-319.5 886,-321.39 865.65,-325.44 858.72,-320.44 840,-329.39 820.09,-338.91 801.42,-355.26 787.69,-369.27"/>
<polygon fill="black" stroke="black" points="784.93,-367.09 780.59,-376.76 790.01,-371.91 784.93,-367.09"/>
</g>
<!-- Geometry&#45;&gt;NumericalAnalysis -->
<g id="edge21" class="edge">
<title>Geometry&#45;&gt;NumericalAnalysis</title>
<path fill="none" stroke="black" d="M917.38,-315.88C907.04,-318.07 896.22,-320.05 886,-321.39 875.19,-322.81 697.55,-321.53 690,-329.39 638.93,-382.59 679.4,-433.63 725,-491.59 733.91,-502.91 745.59,-513.31 756.81,-521.94"/>
<polygon fill="black" stroke="black" points="754.73,-524.76 764.85,-527.91 758.9,-519.14 754.73,-524.76"/>
</g>
<!-- Trigonometry -->
<g id="node19" class="node">
<title>Trigonometry</title>
<ellipse fill="none" stroke="black" cx="948" cy="-396.19" rx="98.99" ry="19.6"/>
<text text-anchor="middle" x="948" y="-391.79" font-family="Times,serif" font-size="18.00">Trigonometry</text>
</g>
<!-- Geometry&#45;&gt;Trigonometry -->
<g id="edge22" class="edge">
<title>Geometry&#45;&gt;Trigonometry</title>
<path fill="none" stroke="black" d="M965.44,-321.78C962.38,-334.65 958.3,-351.84 954.85,-366.35"/>
<polygon fill="black" stroke="black" points="951.38,-365.81 952.48,-376.35 958.19,-367.43 951.38,-365.81"/>
</g>
<!-- Trigonometry&#45;&gt;DifferentialEquations -->
<g id="edge32" class="edge">
<title>Trigonometry&#45;&gt;DifferentialEquations</title>
<path fill="none" stroke="black" d="M934.09,-416.14C927.92,-424.56 920.54,-434.61 913.81,-443.79"/>
<polygon fill="black" stroke="black" points="910.95,-441.77 907.86,-451.9 916.6,-445.91 910.95,-441.77"/>
</g>
<!-- Infinity -->
<g id="node20" class="node">
<title>Infinity</title>
<ellipse fill="none" stroke="black" cx="469" cy="-74.8" rx="57.97" ry="19.6"/>
<text text-anchor="middle" x="469" y="-70.4" font-family="Times,serif" font-size="18.00">Infinity</text>
</g>
<!-- Infinity&#45;&gt;Arithmetic -->
<g id="edge23" class="edge">
<title>Infinity&#45;&gt;Arithmetic</title>
<path fill="none" stroke="black" d="M469,-94.75C469,-102.56 469,-111.79 469,-120.42"/>
<polygon fill="black" stroke="black" points="465.5,-120.51 469,-130.51 472.5,-120.51 465.5,-120.51"/>
</g>
<!-- NumberTheory -->
<g id="node21" class="node">
<title>NumberTheory</title>
<ellipse fill="none" stroke="black" cx="680" cy="-150.4" rx="113.27" ry="19.6"/>
<text text-anchor="middle" x="680" y="-146" font-family="Times,serif" font-size="18.00">Number Theory</text>
</g>
<!-- NumberTheory&#45;&gt;Algebra -->
<g id="edge25" class="edge">
<title>NumberTheory&#45;&gt;Algebra</title>
<path fill="none" stroke="black" d="M712.29,-169.4C730.74,-179.69 753.99,-192.65 773.4,-203.47"/>
<polygon fill="black" stroke="black" points="771.86,-206.62 782.3,-208.44 775.27,-200.51 771.86,-206.62"/>
</g>
<!-- NumberTheory&#45;&gt;LinearAlgebra -->
<g id="edge26" class="edge">
<title>NumberTheory&#45;&gt;LinearAlgebra</title>
<path fill="none" stroke="black" d="M672.53,-170.29C662.39,-195.94 644.18,-241.98 632.35,-271.9"/>
<polygon fill="black" stroke="black" points="629.02,-270.79 628.6,-281.38 635.53,-273.37 629.02,-270.79"/>
</g>
<!-- OrderOfOperations -->
<g id="node22" class="node">
<title>OrderOfOperations</title>
<ellipse fill="none" stroke="black" cx="749" cy="-74.8" rx="140.93" ry="19.6"/>
<text text-anchor="middle" x="749" y="-70.4" font-family="Times,serif" font-size="18.00">Order of Operations</text>
</g>
<!-- OrderOfOperations&#45;&gt;Algebra -->
<g id="edge28" class="edge">
<title>OrderOfOperations&#45;&gt;Algebra</title>
<path fill="none" stroke="black" d="M773.11,-94.31C783.81,-103.92 795.44,-116.57 802,-130.6 811.54,-151.01 813.74,-176.53 813.72,-195.89"/>
<polygon fill="black" stroke="black" points="810.22,-195.87 813.52,-205.94 817.22,-196.02 810.22,-195.87"/>
</g>
<!-- OrderOfOperations&#45;&gt;Arithmetic -->
<g id="edge29" class="edge">
<title>OrderOfOperations&#45;&gt;Arithmetic</title>
<path fill="none" stroke="black" d="M685.46,-92.5C639.47,-104.59 577.58,-120.86 531.76,-132.9"/>
<polygon fill="black" stroke="black" points="530.73,-129.55 521.95,-135.48 532.51,-136.32 530.73,-129.55"/>
</g>
<!-- Chemistry&#45;&gt;Rocket -->
<g id="edge43" class="edge">
<title>Chemistry&#45;&gt;Rocket</title>
<path fill="none" stroke="#57ff57" stroke-dasharray="5,2" d="M1364.59,-409.81C1390.2,-418.05 1419.12,-431.26 1439,-451.99 1475.06,-489.58 1473.07,-555.06 1468.18,-592.84"/>
<polygon fill="#57ff57" stroke="#57ff57" points="1464.65,-592.77 1466.68,-603.17 1471.58,-593.77 1464.65,-592.77"/>
</g>
<!-- Chemistry&#45;&gt;Thermodynamics -->
<g id="edge39" class="edge">
<title>Chemistry&#45;&gt;Thermodynamics</title>
<path fill="none" stroke="black" d="M1308,-416.14C1308,-423.96 1308,-433.18 1308,-441.81"/>
<polygon fill="black" stroke="black" points="1304.5,-441.9 1308,-451.9 1311.5,-441.9 1304.5,-441.9"/>
</g>
<!-- Thermodynamics&#45;&gt;Rocket -->
<g id="edge44" class="edge">
<title>Thermodynamics&#45;&gt;Rocket</title>
<path fill="none" stroke="#57ff57" stroke-dasharray="5,2" d="M1381.25,-487.72C1404.39,-495.87 1428.06,-508.4 1444,-527.59 1459.1,-545.77 1463.32,-572.65 1464.07,-593.08"/>
<polygon fill="#57ff57" stroke="#57ff57" points="1460.57,-593.14 1464.18,-603.1 1467.57,-593.06 1460.57,-593.14"/>
</g>
<!-- MaterialsScience -->
<g id="node25" class="node">
<title>MaterialsScience</title>
<ellipse fill="none" stroke="black" cx="1308" cy="-547.39" rx="126.64" ry="19.6"/>
<text text-anchor="middle" x="1308" y="-542.99" font-family="Times,serif" font-size="18.00">Materials Science</text>
</g>
<!-- Thermodynamics&#45;&gt;MaterialsScience -->
<g id="edge41" class="edge">
<title>Thermodynamics&#45;&gt;MaterialsScience</title>
<path fill="none" stroke="black" d="M1308,-491.74C1308,-499.55 1308,-508.78 1308,-517.41"/>
<polygon fill="black" stroke="black" points="1304.5,-517.5 1308,-527.5 1311.5,-517.5 1304.5,-517.5"/>
</g>
<!-- MaterialsScience&#45;&gt;Rocket -->
<g id="edge45" class="edge">
<title>MaterialsScience&#45;&gt;Rocket</title>
<path fill="none" stroke="#57ff57" stroke-dasharray="5,2" d="M1345.92,-566.39C1368.86,-577.29 1398.14,-591.19 1421.67,-602.36"/>
<polygon fill="#57ff57" stroke="#57ff57" points="1420.18,-605.53 1430.71,-606.65 1423.18,-599.2 1420.18,-605.53"/>
</g>
</g>
</svg>
